<svg width="64" height="64" viewBox="0 0 64 64" fill="none" xmlns="http://www.w3.org/2000/svg">
<g clip-path="url(#clip0_94_106)">
<path d="M50.4213 6.31864C42.7256 -0.299012 25.6977 -3.57696 12.937 5.92368C0.965776 13.9172 0.373779 28.5281 0.373779 28.5281C2.41277 36.5217 10.5032 44.1877 26.0921 40.4531C24.2504 29.7075 27.8601 2.51848 50.4213 6.31864Z" fill="#00ACD2"/>
<path d="M42.4052 32.3071C33.9839 39.2686 8.3507 49.8914 0.373948 28.5286C-1.53155 38.4762 3.7562 55.0328 18.3962 61.2906C31.3317 67.6209 44.8122 60.2895 44.8122 60.2895C50.7422 54.5337 53.4467 43.8876 42.4052 32.3071Z" fill="#C8E9EB"/>
<path d="M27.1947 22.5429C37.4577 26.3269 59.3965 42.7268 44.812 60.2895C54.4132 56.9592 65.6719 44.2175 63.7924 28.4593C62.8284 14.1353 50.4215 6.31905 50.4215 6.31905C42.4525 4.08129 31.7422 7.22775 27.1947 22.5429Z" fill="#662D91"/>
</g>
<defs>
<clipPath id="clip0_94_106">
<rect width="64" height="64" fill="white"/>
</clipPath>
</defs>
</svg>
