<svg width="64" height="64" viewBox="0 0 64 64" fill="none" xmlns="http://www.w3.org/2000/svg">
<g clip-path="url(#clip0_98_21)">
<path d="M17.5799 27.7065H17.2023V27.9425H17.5799V27.7065Z" fill="#A0A1A3"/>
<path d="M23.0284 27.9424H22.302V27.7064H23.0284V27.9424ZM21.9388 27.9424H21.2122V27.7064H21.9388V27.9424ZM20.849 27.9424H20.1226V27.7064H20.849V27.9424ZM19.7593 27.9424H19.0328V27.7064H19.7593V27.9424ZM18.6696 27.9424H17.9431V27.7064H18.6696V27.9424Z" fill="#A0A1A3"/>
<path d="M23.8637 28.2965H23.6749V27.9425H23.3917V27.7065H23.8637V28.2965Z" fill="#A0A1A3"/>
<path d="M23.8637 43.9193H23.6749V42.9725H23.8637V43.9193ZM23.8637 42.499H23.6749V41.5522H23.8637V42.499ZM23.8637 41.0788H23.6749V40.132H23.8637V41.0788ZM23.8637 39.6585H23.6749V38.7117H23.8637V39.6585ZM23.8637 38.2383H23.6749V37.2914H23.8637V38.2383ZM23.8637 36.8181H23.6749V35.8712H23.8637V36.8181ZM23.8637 35.3977H23.6749V34.4509H23.8637V35.3977ZM23.8637 33.9775H23.6749V33.0307H23.8637V33.9775ZM23.8637 32.5573H23.6749V31.6104H23.8637V32.5573ZM23.8637 31.137H23.6749V30.1902H23.8637V31.137ZM23.8637 29.7168H23.6749V28.7699H23.8637V29.7168Z" fill="#A0A1A3"/>
<path d="M23.8637 44.3927H23.6749V44.8647H23.8637V44.3927Z" fill="#A0A1A3"/>
<path d="M49.8181 35.6632L50.3676 34.9086L50.1667 33.8983L49.7261 34.0386L49.6304 34.7902L49.3759 34.9788L49.3333 35.6352L49.8181 35.6632Z" fill="#80725C"/>
<path d="M42.3482 44.1397L42.2949 49.8986L42.7859 57.3121H43.4535L44.2523 50.4725L45.1658 43.6211L42.3482 44.1397Z" fill="#9E9379"/>
<path d="M43.4496 57.664L42.7278 58.1152L42.3668 57.664L42.7278 57.2128H43.4496V57.664Z" fill="#3B3631"/>
<path d="M47.0778 44.1001L47.0203 47.431L46.3617 57.2534L45.6944 57.2313L44.7164 50.6663L44.2722 43.4884L47.0778 44.1001Z" fill="#9E9379"/>
<path d="M45.6908 57.5831L46.4029 58.0581L46.7732 57.619L46.422 57.156L45.7003 57.1321L45.6908 57.5831Z" fill="#3B3631"/>
<path d="M47.6194 46.1458C47.6338 46.6744 47.6245 47.3814 47.4465 47.4078C47.4132 47.4128 47.381 47.3943 47.3516 47.3765C47.042 47.1885 46.8213 46.9227 46.5161 46.7411C46.1963 46.5508 45.8327 46.4511 45.4775 46.3824C44.9476 46.2766 44.4089 46.213 43.8756 46.2071C43.4172 46.2021 42.9405 46.4634 42.5072 46.6071C42.3404 46.6625 42.2048 46.8144 42.0661 46.9336C41.8615 47.1096 41.7717 47.1793 41.7996 46.8197C41.8452 46.2329 41.8925 45.6462 41.9502 45.061C42.0654 43.8939 42.2222 42.7296 42.4875 41.5997C42.5889 41.1681 42.7058 40.7424 42.8227 40.317C42.965 39.7989 43.1074 39.2808 43.2497 38.7626C43.4266 38.1187 43.7252 37.6651 44.2479 37.4399C44.6997 37.2453 45.2608 37.192 45.7003 37.4645C46.1887 37.7674 46.421 38.7993 46.6583 39.3507C46.8663 39.8339 47.1284 41.152 47.2062 41.6729C47.2999 42.3 47.3865 42.9241 47.4546 43.5465C47.5301 44.2358 47.5833 44.9232 47.5987 45.6065C47.6004 45.6821 47.6126 45.8934 47.6194 46.1458Z" fill="#59595B"/>
<path d="M44.6595 37.5775C44.67 37.589 44.6822 37.598 44.6963 37.6038C44.7243 37.6153 44.7547 37.6111 44.7841 37.6067C44.9034 37.5891 45.0227 37.5715 45.1421 37.5538C45.1027 37.097 45.3163 36.9936 45.5245 36.6999C45.7355 36.402 45.6705 36.0004 45.6587 35.6359C45.6553 35.5344 45.6513 35.4299 45.617 35.3378C45.5568 35.1762 45.4164 35.087 45.2803 35.034C44.9327 34.899 44.5351 34.9323 44.2291 35.1785C44.1476 35.244 44.0716 35.3264 44.0275 35.4342C43.9595 35.6004 43.9768 35.7987 43.9957 35.9839C44.0249 36.2686 44.0923 36.5481 44.221 36.788C44.3409 37.0115 44.5697 37.1186 44.596 37.3868C44.6027 37.4562 44.6195 37.5342 44.6595 37.5775Z" fill="#80725C"/>
<path d="M44.0057 35.6531C44.0259 35.7679 44.0688 35.8841 44.0465 35.9983C43.9006 35.9363 43.8053 35.7499 43.7536 35.5603C43.7302 35.4744 43.7132 35.3835 43.7191 35.2925C43.725 35.2016 43.7566 35.1103 43.814 35.0589C43.8941 34.9872 44.0379 35.0154 44.0608 35.1453C44.0839 35.2763 43.9751 35.4804 44.0057 35.6531Z" fill="#6E694F"/>
<path d="M43.2313 34.6449C43.2348 34.5074 43.2767 34.3844 43.375 34.3014C43.4597 34.2298 43.5574 34.1706 43.609 34.0568C43.649 33.9685 43.6548 33.8592 43.6944 33.7706C43.7661 33.6102 43.9218 33.563 44.0572 33.5087C44.396 33.3727 44.5784 33.2158 44.9372 33.3898C45.1923 33.5136 45.5219 33.5302 45.7587 33.7107C45.8576 33.7862 45.9417 33.9073 46.0108 34.0422C46.2499 34.5096 46.3074 35.167 46.1516 35.6546C46.1167 35.7637 46.0724 35.8641 46.025 35.9602C45.9303 36.1523 45.8289 36.3887 45.6612 36.4828C45.6506 36.3922 45.5967 36.3423 45.5798 36.2533C45.5676 36.1892 45.5717 36.1221 45.5743 36.0562C45.5846 35.7999 45.6476 35.3946 45.4428 35.2674C45.1837 35.1066 44.6979 35.2516 44.4485 35.3877C44.2278 35.5081 43.8553 35.6647 43.62 35.5358C43.4015 35.416 43.2239 34.9387 43.2313 34.6449Z" fill="#4F4B47"/>
<path d="M45.7002 37.4645L48.0159 38.9583L49.1249 35.4927L49.9837 35.5422L49.2531 40.1001L48.1757 40.865L45.6772 39.8899L45.7002 37.4645Z" fill="#59595B"/>
<path d="M43.9787 37.6113L42.9271 38.1788L41.117 40.2357L38.6764 40.2002L38.6974 41.2447L41.6451 42.1433L43.823 39.4771L43.9787 37.6113Z" fill="#59595B"/>
<path d="M38.741 40.4428L38.1018 40.1937L37.4409 40.644L37.5392 41.1172L38.7749 41.0127L38.741 40.4428Z" fill="#80725C"/>
<path d="M14.8674 35.2917C14.7828 35.0891 14.6864 34.6683 14.439 34.6853C14.4209 34.6866 14.4008 34.6945 14.393 34.7149C14.3763 34.7597 14.4248 34.8356 14.3871 34.8505C14.2345 34.7484 14.0654 34.6853 13.893 34.6664C13.8016 34.6564 13.6851 34.68 13.6602 34.7905C13.6385 34.8868 13.7043 34.9769 13.7659 35.0408C13.9554 35.2373 14.1637 35.4056 14.3848 35.5409L14.3614 35.5818C14.5151 35.4096 14.6944 35.4053 14.8674 35.2917Z" fill="#D5C6AB"/>
<path d="M24.9972 40.5493C24.9972 40.5493 25.3128 40.6071 25.3179 40.6079C25.4349 40.6294 25.9462 40.3071 26.0553 40.2314C26.1176 40.1882 25.6461 39.8912 25.596 39.879C25.5105 39.8582 25.308 39.9795 25.2136 40.0058L25.0794 39.8475L24.8762 39.9995L24.9972 40.5493Z" fill="#D6C7AC"/>
<path d="M17.1422 57.0547L17.0977 57.4883L17.7466 58.0332L18.138 57.6555L17.8358 57.1662L17.1868 56.6212L17.1422 57.0547Z" fill="#40495F"/>
<path d="M17.1204 56.9091L17.6209 51.3807L17.0187 45.1917L17.1541 43.8751L19.8438 43.7474L19.9409 45.8902L19.4893 51.3892L17.7906 57.1917L17.1204 56.9091Z" fill="#333132"/>
<path d="M20.2721 37.7507L21.4811 38.6387L22.44 40.3189L24.9949 39.8559L25.0748 40.7356L22.173 41.9446L20.6859 41.2489L20.2721 37.7507Z" fill="white"/>
<path d="M21.8174 44.367L21.8245 49.9458L20.9261 57.1277L20.2795 57.1196L19.924 50.4781L19.0922 43.8306L21.8174 44.367Z" fill="#333132"/>
<path d="M20.2805 57.4605L20.9763 57.9062L21.3293 57.4736L20.9832 57.0322L20.284 57.0234L20.2805 57.4605Z" fill="#40495F"/>
<path d="M16.7403 46.2643C16.7464 46.0226 16.7572 45.8208 16.7587 45.7487C16.7726 45.1002 16.8188 44.4531 16.8838 43.8092C16.942 43.2322 17.0154 41.7996 17.0945 41.2262C17.1597 40.7527 17.387 39.5708 17.5512 39.1316C17.9596 38.0394 17.8335 37.9385 19.6275 37.6142C20.4138 37.472 20.5996 38.0846 21.2424 38.7889C21.3059 38.8583 21.3023 39.272 21.3171 39.3815C21.343 39.5744 21.3707 39.767 21.4026 39.9587C21.4276 40.1093 21.4552 40.2595 21.4862 40.4087L21.4861 40.4086C21.4861 40.4086 22.0257 43.4783 22.3826 44.1303C22.7395 44.7822 23.4767 45.6936 22.2435 46.2502C22.0249 46.3385 21.805 46.4225 21.5775 46.4675C21.5775 46.4675 20.5689 46.3274 20.0502 46.3322C19.5725 46.3367 19.0927 46.3971 18.6231 46.4983C18.3091 46.5639 17.9886 46.6593 17.7077 46.8427C17.4396 47.0178 17.2461 47.2751 16.9742 47.4564C16.9484 47.4735 16.9202 47.4913 16.8909 47.4863C16.7346 47.4592 16.7273 46.7732 16.7403 46.2643Z" fill="white"/>
<path d="M19.4665 37.897C19.3931 37.9836 19.1936 38.0812 18.9549 38.0587C18.9068 38.0542 18.8651 38.0136 18.8515 37.9557C18.8135 37.7933 18.7841 37.6277 18.7639 37.4603C18.5868 37.4515 18.3763 37.4171 18.2971 37.219C18.2721 37.1566 18.2647 37.0859 18.2577 37.0167C18.2284 36.7306 18.1992 36.4445 18.17 36.1584C18.1599 36.0595 18.1499 35.9575 18.171 35.8612C18.208 35.6924 18.332 35.5771 18.4569 35.4978C18.7755 35.2955 19.1646 35.2459 19.4933 35.4211C19.5808 35.4678 19.6652 35.5319 19.7221 35.6271C19.8099 35.7739 19.8193 35.9695 19.8254 36.1526C19.8309 36.3216 19.8366 36.4907 19.8421 36.6597C19.8485 36.8541 19.8443 37.0796 19.7222 37.2003C19.6574 37.2644 19.5679 37.2874 19.5143 37.3659C19.4197 37.5046 19.4892 37.717 19.4665 37.897Z" fill="#D5C6AB"/>
<path d="M20.7428 34.4417C20.7592 34.3612 20.7787 34.282 20.8035 34.2053C20.8571 34.0392 20.9354 33.8844 20.9685 33.71C21.0017 33.5358 20.9769 33.3263 20.8602 33.2224C20.7848 33.1553 20.6868 33.1449 20.5943 33.1464C20.2896 33.1509 19.9862 33.2598 19.726 33.458C19.4781 33.6468 19.2723 33.881 18.9706 33.8586C18.687 33.8376 18.5153 33.9565 18.2786 34.1772C18.0225 34.416 17.6438 34.5945 17.4279 34.8756C17.3378 34.993 17.2801 35.1445 17.2445 35.3011C17.1215 35.8434 17.2735 36.4676 17.6175 36.8322C17.6947 36.914 17.7799 36.9831 17.8673 37.0468C18.0483 37.1786 18.2664 37.3435 18.4699 37.34C18.423 37.1295 18.1091 36.5297 18.1953 36.3093C18.332 35.9596 18.8156 35.8776 19.0844 35.8475C19.3777 35.8146 19.6831 35.9641 19.969 35.9113C20.1747 35.8733 20.3958 35.6566 20.5317 35.4655C20.6994 35.2296 20.6831 34.7357 20.7428 34.4417Z" fill="#7F674C"/>
<path d="M18.0583 38.0948L16.6469 38.5478L14.9472 35.2454L14.2299 35.4874L15.4257 40.2416L18.1774 40.6557L18.0583 38.0948Z" fill="white"/>
<path d="M42.3964 45.335C42.2738 45.335 42.1522 45.3406 42.0316 45.3508C41.624 42.4116 39.5609 40.1753 37.0766 40.1753C35.9406 40.1753 34.8926 40.6433 34.0507 41.432C33.1407 39.4395 31.417 38.0948 29.4401 38.0948C26.5149 38.0948 24.1436 41.0384 24.1436 44.6693C24.1436 44.8994 24.1532 45.1268 24.1717 45.3508C24.0516 45.3407 23.9305 45.3351 23.8084 45.3351C20.8832 45.3351 18.5118 48.2786 18.5118 51.9096C18.5118 55.5406 20.8832 58.4841 23.8084 58.4841H42.3965C45.3217 58.4841 47.693 55.5406 47.693 51.9096C47.693 48.2785 45.3216 45.335 42.3964 45.335Z" fill="#5471BA"/>
<path d="M28.7711 23.2711L25.7347 23.229L26.0348 20.3281L28.5225 20.3626L28.7711 23.2711Z" fill="#C2C4C3"/>
<g opacity="0.14">
<path d="M25.9484 21.131L28.5762 20.9911L28.6492 21.8452L25.9484 21.131Z" fill="black"/>
</g>
<path d="M19.2688 6.81209V20.8972C19.2688 21.0264 19.3526 21.131 19.4559 21.131H35.0756C35.1789 21.131 35.2627 21.0263 35.2627 20.8972V6.81209C35.2627 6.68297 35.1789 6.57825 35.0756 6.57825H19.4559C19.3526 6.57825 19.2688 6.68297 19.2688 6.81209Z" fill="#CBD0D0"/>
<path d="M19.2688 6.86375V19.331H35.2627V6.86375C35.2627 6.69391 35.1526 6.55615 35.0166 6.55615H19.5149C19.379 6.55615 19.2688 6.69391 19.2688 6.86375Z" fill="#373D54"/>
<path d="M34.8411 7.14001H19.6904V18.6513H34.8411V7.14001Z" fill="#B8DDF4"/>
<path d="M29.6653 22.8717H24.8662V23.918H29.6653V22.8717Z" fill="#CBD0D0"/>
<path d="M58.3106 36H52.2652C52.1125 36 51.9888 35.8453 51.9888 35.6545V22.0472C51.9888 21.8564 52.1125 21.7017 52.2652 21.7017H58.3106C58.4632 21.7017 58.587 21.8564 58.587 22.0472V35.6545C58.587 35.8453 58.4632 36 58.3106 36Z" fill="#373D54"/>
<path d="M58.0975 22.4457H52.4781V34.0306H58.0975V22.4457Z" fill="#B8DDF4"/>
<path d="M55.8516 35.4224H54.7242C54.6276 35.4224 54.5494 35.3246 54.5494 35.204V35.035C54.5494 34.9144 54.6276 34.8167 54.7242 34.8167H55.8516C55.9482 34.8167 56.0264 34.9144 56.0264 35.035V35.204C56.0263 35.3246 55.9481 35.4224 55.8516 35.4224Z" fill="white"/>
<path d="M48.2737 12.6843H39.6227V28.6722H48.2737V12.6843Z" fill="#B5B6BB"/>
<g opacity="0.1">
<path d="M48.2737 12.6843L39.8312 30.1522H48.2737V12.6843Z" fill="#272525"/>
</g>
<path d="M48.6111 12.6843H39.3195V15.8328H48.6111V12.6843Z" fill="#DCDCDE"/>
<path d="M44.7564 14.1425H40.2396V14.3747H44.7564V14.1425Z" fill="#86878A"/>
<path d="M46.5802 13.9857H46.1436V14.5315H46.5802V13.9857Z" fill="#3C6792"/>
<path d="M47.5133 13.9857H47.0767V14.5315H47.5133V13.9857Z" fill="#EDBA57"/>
<path d="M48.6111 16.2642H39.3195V19.4126H48.6111V16.2642Z" fill="#DCDCDE"/>
<path d="M44.7564 17.7223H40.2396V17.9544H44.7564V17.7223Z" fill="#86878A"/>
<path d="M46.5802 17.5656H46.1436V18.1114H46.5802V17.5656Z" fill="#3C6792"/>
<path d="M47.5133 17.5656H47.0767V18.1114H47.5133V17.5656Z" fill="#EDBA57"/>
<path d="M48.6111 19.844H39.3195V22.9925H48.6111V19.844Z" fill="#DCDCDE"/>
<path d="M44.7564 21.3021H40.2396V21.5344H44.7564V21.3021Z" fill="#86878A"/>
<path d="M46.5802 21.1454H46.1436V21.6911H46.5802V21.1454Z" fill="#3C6792"/>
<path d="M47.5133 21.1454H47.0767V21.6911H47.5133V21.1454Z" fill="#EDBA57"/>
<path d="M48.6111 23.4238H39.3195V26.5723H48.6111V23.4238Z" fill="#DCDCDE"/>
<path d="M44.7564 24.882H40.2396V25.1141H44.7564V24.882Z" fill="#86878A"/>
<path d="M46.5802 24.7252H46.1436V25.2711H46.5802V24.7252Z" fill="#3C6792"/>
<path d="M47.5133 24.7252H47.0767V25.2711H47.5133V24.7252Z" fill="#EDBA57"/>
<path d="M48.6111 27.0037H39.3195V30.1521H48.6111V27.0037Z" fill="#DCDCDE"/>
<path d="M44.7564 28.4618H40.2396V28.694H44.7564V28.4618Z" fill="#86878A"/>
<path d="M46.5802 28.3051H46.1436V28.8508H46.5802V28.3051Z" fill="#3C6792"/>
<path d="M47.5133 28.3051H47.0767V28.8508H47.5133V28.3051Z" fill="#EDBA57"/>
<path d="M11.3906 22.2532L11.3911 22.075C11.3921 21.7856 11.2002 21.55 10.9626 21.5487L6.47606 21.5254C6.23842 21.5242 6.04502 21.7578 6.04406 22.0472L6.0127 31.497L16.7069 31.5524L16.736 22.805C16.7369 22.5156 16.545 22.28 16.3074 22.2787L11.3906 22.2532Z" fill="#ECCE83"/>
<path d="M16.3613 23.0334L6.5166 22.9829L6.48835 31.5952L16.3331 31.6457L16.3613 23.0334Z" fill="white"/>
<g opacity="0.04">
<path d="M11.0779 23.8549L10.9174 24.3901L6.46672 24.3669C6.22909 24.3657 6.03568 24.5993 6.03472 24.8888L6.01258 31.5609C6.01162 31.8504 6.20349 32.086 6.44112 32.0873L16.2747 32.1382C16.5124 32.1394 16.7058 31.9058 16.7067 31.6164L16.7318 24.0619C16.7328 23.7725 16.5409 23.5369 16.3033 23.5356L11.4838 23.5106C11.3025 23.5097 11.1401 23.6473 11.0779 23.8549Z" fill="#272525"/>
</g>
<path d="M11.232 24.0844L11.0715 24.6196L6.46599 24.5957C6.22836 24.5945 6.03495 24.8281 6.03399 25.1175L6.01184 31.7898C6.01088 32.0792 6.20276 32.3148 6.44039 32.3161L16.274 32.367C16.5116 32.3682 16.705 32.1346 16.706 31.8452L16.7311 24.2907C16.732 24.0013 16.5402 23.7657 16.3025 23.7644L11.638 23.7402C11.4566 23.7394 11.2942 23.877 11.232 24.0844Z" fill="#F0C861"/>
<path d="M27.3271 24.6337H27.1383V25.1057H27.3271V24.6337Z" fill="#A0A1A3"/>
<path d="M27.3271 37.2567H27.1383V36.3567H27.3271V37.2567ZM27.3271 35.9067H27.1383V35.0066H27.3271V35.9067ZM27.3271 34.5565H27.1383V33.6564H27.3271V34.5565ZM27.3271 33.2064H27.1383V32.3063H27.3271V33.2064ZM27.3271 31.8563H27.1383V30.9562H27.3271V31.8563ZM27.3271 30.5062H27.1383V29.6061H27.3271V30.5062ZM27.3271 29.156H27.1383V28.2559H27.3271V29.156ZM27.3271 27.8059H27.1383V26.9059H27.3271V27.8059ZM27.3271 26.4559H27.1383V25.5558H27.3271V26.4559Z" fill="#A0A1A3"/>
<path d="M27.3271 37.7068H27.1383V38.1788H27.3271V37.7068Z" fill="#A0A1A3"/>
<path d="M32.0394 38.2032C32.0333 38.1667 32.0255 38.0776 32.0201 37.7098L32.2089 37.7056C32.2142 38.0697 32.2219 38.1412 32.2241 38.1545L32.0394 38.2032Z" fill="#A0A1A3"/>
<path d="M32.0159 37.2647C32.0145 37.0326 32.0139 36.7647 32.0139 36.4704L32.014 36.3757L32.2028 36.376V36.4705C32.2028 36.7641 32.2034 37.0314 32.2048 37.263L32.0159 37.2647ZM32.2033 35.9318L32.0145 35.9311C32.0151 35.6489 32.0161 35.3505 32.0174 35.0421L32.2062 35.0434C32.2049 35.3516 32.2039 35.6498 32.2033 35.9318ZM32.2084 34.5991L32.0196 34.5976C32.0211 34.3059 32.0229 34.008 32.0248 33.709L32.2136 33.7109C32.2116 34.0098 32.2099 34.3075 32.2084 34.5991ZM32.2165 33.2667L32.0277 33.2647L32.0343 32.3759L32.2231 32.3781L32.2165 33.2667ZM32.2267 31.9338L32.0379 31.9314C32.0403 31.6229 32.0429 31.3245 32.0454 31.0426L32.2342 31.0452C32.2316 31.3271 32.2291 31.6254 32.2267 31.9338ZM32.2382 30.6009L32.0494 30.5982L32.0578 29.7092L32.2466 29.7121L32.2382 30.6009Z" fill="#A0A1A3"/>
<path d="M32.2509 29.2738L32.0621 29.2708L32.0683 28.6825H32.539V28.9184H32.2546L32.2509 29.2738Z" fill="#A0A1A3"/>
<path d="M37.7004 28.9184H37.0122V28.6824H37.7004V28.9184ZM36.6681 28.9184H35.98V28.6824H36.6681V28.9184ZM35.6358 28.9184H34.9476V28.6824H35.6358V28.9184ZM34.6035 28.9184H33.9153V28.6824H34.6035V28.9184ZM33.5712 28.9184H32.8831V28.6824H33.5712V28.9184Z" fill="#A0A1A3"/>
<path d="M38.4222 28.6825H38.0446V28.9185H38.4222V28.6825Z" fill="#A0A1A3"/>
<path d="M36.6815 38.8979H36.4927V39.3699H36.6815V38.8979Z" fill="#A0A1A3"/>
<path d="M36.6816 38.4414H36.4928V37.5283H36.6816V38.4414ZM36.6816 37.0716H36.4928V36.1585H36.6816V37.0716ZM36.6816 35.7019H36.4928V34.7888H36.6816V35.7019ZM36.6816 34.3322H36.4928V33.4191H36.6816V34.3322Z" fill="#A0A1A3"/>
<path d="M36.6815 32.9626H36.4927V32.3726H36.9647V32.6085H36.6815V32.9626Z" fill="#A0A1A3"/>
<path d="M50.5876 32.6084H49.8308V32.3724H50.5876V32.6084ZM49.4523 32.6084H48.6955V32.3724H49.4523V32.6084ZM48.3171 32.6084H47.5603V32.3724H48.3171V32.6084ZM47.1819 32.6084H46.4251V32.3724H47.1819V32.6084ZM46.0466 32.6084H45.2898V32.3724H46.0466V32.6084ZM44.9114 32.6084H44.1545V32.3724H44.9114V32.6084ZM43.7762 32.6084H43.0193V32.3724H43.7762V32.6084ZM42.6409 32.6084H41.8841V32.3724H42.6409V32.6084ZM41.5056 32.6084H40.7488V32.3724H41.5056V32.6084ZM40.3704 32.6084H39.6135V32.3724H40.3704V32.6084ZM39.2352 32.6084H38.4784V32.3724H39.2352V32.6084ZM38.0999 32.6084H37.3431V32.3724H38.0999V32.6084Z" fill="#A0A1A3"/>
<path d="M51.3435 32.3726H50.9659V32.6086H51.3435V32.3726Z" fill="#A0A1A3"/>
<path d="M31.8338 46.6893V48.2471L34.0568 45.4684L31.8338 42.6897V44.3069C31.535 44.3859 31.2446 44.5015 30.9699 44.6551C30.7486 44.7777 30.5366 44.9211 30.3376 45.0851C30.1388 45.25 29.9526 45.4337 29.7806 45.6333C29.4356 46.0311 29.1525 46.4983 28.9367 46.9997C28.7202 47.5014 28.5787 48.0434 28.5071 48.5888C28.44 49.1363 28.4432 49.6864 28.5182 50.2133C28.5938 50.7406 28.7375 51.2439 28.9374 51.698C29.1407 52.1506 29.4008 52.5518 29.6976 52.8879C29.9979 53.2206 30.336 53.4856 30.6917 53.676C30.3766 53.3939 30.1036 53.0544 29.8839 52.6769C29.6675 52.2957 29.5034 51.8794 29.3991 51.4493C29.2981 51.0172 29.256 50.5743 29.2702 50.142C29.2848 49.7088 29.3604 49.2883 29.4808 48.9023C29.6059 48.5177 29.7753 48.1651 29.9858 47.8649C30.1957 47.5649 30.439 47.3117 30.705 47.1231C30.8375 47.0281 30.9744 46.9477 31.1139 46.8823C31.2537 46.8178 31.3964 46.77 31.5392 46.7364C31.6373 46.7124 31.7356 46.6975 31.8338 46.6893Z" fill="white"/>
<path d="M36.7965 48.931C36.721 48.4037 36.5772 47.9004 36.3774 47.4463C36.174 46.9937 35.914 46.5925 35.6171 46.2563C35.3168 45.9237 34.9788 45.6587 34.623 45.4683C34.9382 45.7503 35.2111 46.0899 35.4309 46.4674C35.6472 46.8486 35.8113 47.2649 35.9157 47.695C36.0166 48.1271 36.0588 48.5699 36.0446 49.0023C36.03 49.4355 35.9543 49.856 35.8339 50.2419C35.7088 50.6266 35.5393 50.9792 35.3289 51.2794C35.119 51.5794 34.8757 51.8326 34.6097 52.0212C34.4773 52.1162 34.3403 52.1966 34.2008 52.2619C34.061 52.3265 33.9183 52.3742 33.7756 52.4079C33.6774 52.4317 33.5791 52.4467 33.481 52.4549V50.8971L31.2581 53.6758L33.481 56.4545V54.8373C33.7798 54.7583 34.0702 54.6427 34.3448 54.4891C34.5662 54.3665 34.7782 54.2231 34.9772 54.0591C35.1759 53.8942 35.3622 53.7105 35.5342 53.5109C35.8792 53.1131 36.1623 52.6459 36.3781 52.1445C36.5946 51.6428 36.7361 51.1008 36.8077 50.5554C36.8747 50.008 36.8716 49.4578 36.7965 48.931Z" fill="white"/>
</g>
<defs>
<clipPath id="clip0_98_21">
<rect width="64" height="64" fill="white"/>
</clipPath>
</defs>
</svg>
