<svg width="64" height="64" viewBox="0 0 64 64" fill="none" xmlns="http://www.w3.org/2000/svg">
<g clip-path="url(#clip0_89_17)">
<path d="M31.9375 61.4375C31.8915 61.4375 31.846 61.431 31.802 61.419L22.4895 58.794C22.2905 58.7375 22.146 58.564 22.127 58.358L20.002 35.0455C19.9895 34.9055 20.036 34.7665 20.131 34.663C20.2255 34.559 20.3595 34.5 20.5 34.5H43.4375C43.5775 34.5 43.711 34.5585 43.8055 34.662C43.9 34.765 43.9475 34.903 43.9355 35.043L41.9355 58.3555C41.918 58.5635 41.772 58.739 41.571 58.7945L32.071 61.4195C32.027 61.4315 31.9825 61.4375 31.9375 61.4375ZM23.092 57.925L31.939 60.4185L40.9695 57.9235L42.8925 35.5H21.048L23.092 57.925Z" fill="url(#paint0_linear_89_17)"/>
<path d="M32 37V59L39.625 57L41.5 37H32ZM39.6875 46.3125L39.125 53.6875L32.875 55.25V52.625L37.375 51.375L37.4375 49.1875L32.8125 49.875V40H40.125L39.9375 42.6875L35.125 42.75V46.8125L39.6875 46.3125Z" fill="url(#paint1_linear_89_17)"/>
<path d="M24.3125 53.4375V50.6875L28.8125 51.9375V40H31V55.3125L24.3125 53.4375Z" fill="url(#paint2_linear_89_17)"/>
<path d="M6.1875 28.875L4.125 3.09375H28.875L26.8125 28.875L16.5 31.9688L6.1875 28.875Z" fill="#E44D26"/>
<path d="M26.8125 5.15625H16.5V30.4219L24.75 27.8438L26.8125 5.15625Z" fill="#F16529"/>
<path d="M9.79688 18.0469L8.76562 8.25H24.75L24.2344 11.3438H11.8594L12.375 14.9531H23.7188L22.6875 24.75L16.5 26.8125L10.3125 24.75L9.79688 19.5938H12.8906L13.4062 22.1719L16.5 23.2031L19.5938 22.1719L20.1094 18.0469H9.79688Z" fill="white"/>
<path d="M37.1875 28.875L35.125 3.09375H59.875L57.8125 28.875L47.5 31.9688L37.1875 28.875Z" fill="#1172B8"/>
<path d="M57.8125 5.15625H47.5V30.4219L55.75 27.8438L57.8125 5.15625Z" fill="#33AADD"/>
<path d="M51.1094 18.0469H40.7969L40.2812 14.4375L48.5312 11.8594H40.2812L39.7656 8.76562H55.75L55.2344 12.375L48.5312 14.9531H54.7188L53.6875 24.75L47.5 26.8125L41.3125 24.75L40.7969 19.5938H43.8906L44.4062 22.1719L47.5 23.2031L50.5938 22.1719L51.1094 18.0469Z" fill="white"/>
</g>
<defs>
<linearGradient id="paint0_linear_89_17" x1="31.9685" y1="34.5" x2="31.9685" y2="61.4375" gradientUnits="userSpaceOnUse">
<stop stop-color="#1A6DFF"/>
<stop offset="1" stop-color="#C822FF"/>
</linearGradient>
<linearGradient id="paint1_linear_89_17" x1="36.75" y1="37" x2="36.75" y2="59" gradientUnits="userSpaceOnUse">
<stop stop-color="#6DC7FF"/>
<stop offset="1" stop-color="#E6ABFF"/>
</linearGradient>
<linearGradient id="paint2_linear_89_17" x1="27.6565" y1="40" x2="27.6565" y2="55.3125" gradientUnits="userSpaceOnUse">
<stop stop-color="#6DC7FF"/>
<stop offset="1" stop-color="#E6ABFF"/>
</linearGradient>
<clipPath id="clip0_89_17">
<rect width="64" height="64" fill="white"/>
</clipPath>
</defs>
</svg>
