<svg width="64" height="64" viewBox="0 0 64 64" fill="none" xmlns="http://www.w3.org/2000/svg">
<g clip-path="url(#clip0_89_17)">
<path d="M17.4749 32.0001L15.6856 31.7333C15.6856 31.7333 15.9238 27.6618 12.6478 27.3757C10.5034 26.2528 12.9647 -20.5616 20.8034 27.2161C19.3161 27.5553 18.1781 28.14 17.6274 28.8479C17.3322 29.8933 17.2811 30.9498 17.4749 32.0001Z" fill="url(#paint0_linear_89_17)"/>
<path d="M18.4428 28.067C23.207 26.4542 26.8555 24.2665 28.9643 21.7582C31.0731 19.2499 31.5556 16.5239 30.3557 13.8972C26.8533 6.94889 18.5595 4.66458 17.6661 3.79243C16.8952 3.24935 16.2372 2.67549 15.7004 2.07812L16.3604 21.438C16.3604 21.438 14.9928 27.3545 18.4428 28.067Z" fill="url(#paint1_linear_89_17)"/>
<path d="M14.7756 28.3242C14.7756 28.3242 0.191787 23.8574 1.03522 15.9555C1.1139 13.5733 2.3285 11.2265 4.59698 9.07345C6.86546 6.92045 10.135 5.01144 14.1847 3.47537C14.658 3.29456 15.034 3.06788 15.2845 2.81235C15.5349 2.55681 15.6534 2.27908 15.631 2C16.5387 2.87858 16.391 15.1176 16.4863 16.5491C16.8556 22.1174 15.7977 27.2731 14.7756 28.3242Z" fill="url(#paint2_linear_89_17)"/>
<path d="M64 31.222C62.9087 31.7003 62.2337 31.243 61.6281 29.6756L57.3212 19.4047L56.6987 17.9827L51.6691 29.7095C51.0944 31.1202 50.4916 31.7343 49.4191 31.2349L55.8597 16.3328L49.8634 2.87213C50.8947 2.52632 51.6072 2.70245 52.24 4.29414L56.7072 14.6927L61.2072 4.3507C61.7837 2.94 62.4034 2.40351 63.4384 2.92384L61.1134 8.23701L57.9634 15.3067C57.5884 16.1147 57.64 16.6673 57.985 17.4478L64 31.222ZM34.0075 16.084L34.5344 11.6175C35.9687 2.7784 41.8469 -0.894608 45.9006 4.56724C48.2697 7.77971 48.8584 12.3237 48.7412 17.4139H35.3875C35.1869 26.5762 39.0128 32.1059 43.8906 29.2845C45.6016 28.2939 46.6094 25.9848 47.1137 23.0955C47.3697 21.6476 47.7934 21.4214 48.5828 21.8351C48.1797 25.4483 47.2703 28.4668 45.3484 30.3559C42.4769 33.1837 38.3781 32.2691 36.2219 28.3392C34.9375 26.0591 34.4069 23.1698 34.1688 20.0802C34.1313 19.5695 34.0562 19.0831 34 18.5935C34.005 17.7575 34.0075 16.9216 34.0075 16.0856V16.084ZM35.4119 15.4699H47.4794C47.4006 8.8446 45.0072 4.13902 41.7362 4.09862C38.1456 4.05014 35.5675 8.64423 35.4119 15.4699Z" fill="black"/>
<path d="M18.5115 48.9774C18.5115 47.6327 17.3871 46.5424 16 46.5424C14.6131 46.5424 13.4885 47.6327 13.4885 48.9774C13.4885 50.3224 14.6131 51.4126 16 51.4126C17.3871 51.4126 18.5115 50.3224 18.5115 48.9774Z" fill="#53C1DE"/>
<path fill-rule="evenodd" clip-rule="evenodd" d="M24.1566 44.4566C24.687 42.367 25.3536 38.492 23.0035 37.1783C20.6643 35.8703 17.6204 38.3767 16.013 39.8811C14.4104 38.3916 11.2809 35.896 8.93278 37.2139C6.59454 38.5263 7.3156 42.337 7.85772 44.4397C5.67654 45.0404 1.9375 46.3341 1.9375 48.9774C1.9375 51.6132 5.67265 53.0207 7.84092 53.6208C7.29679 55.7352 6.61184 59.4915 8.95307 60.801C11.31 62.1186 14.4297 59.6823 16.0519 58.1614C17.6696 59.6747 20.6843 62.127 23.0239 60.8138C25.3709 59.4965 24.7596 55.6735 24.2175 53.5586C26.3193 52.9572 30.0625 51.5803 30.0625 48.9774C30.0625 46.3595 26.3034 45.0553 24.1566 44.4566ZM23.8902 52.4378C23.5342 51.3452 23.0538 50.1834 22.466 48.9832C23.027 47.8113 23.4888 46.6645 23.8349 45.579C25.4087 46.0214 28.8611 47.0325 28.8611 48.9774C28.8611 50.9406 25.5481 51.9613 23.8902 52.4378ZM22.4219 59.8056C20.6763 60.7853 18.0832 58.4402 16.8886 57.3258C17.6811 56.4854 18.4731 55.5083 19.2461 54.4233C20.6058 54.3064 21.8903 54.1152 23.0553 53.8541C23.4368 55.3501 24.1752 58.8215 22.4219 59.8056ZM9.55339 59.7917C7.80759 58.8156 8.60554 55.4637 9.00585 53.9062C10.1578 54.1533 11.4331 54.3311 12.796 54.4382C13.574 55.4999 14.389 56.4757 15.2103 57.3303C14.1956 58.282 11.3073 60.7722 9.55339 59.7917ZM3.1389 48.9774C3.1389 47.0069 6.57069 46.0031 8.18035 45.5618C8.53235 46.6717 8.99402 47.8323 9.55115 49.0058C8.9868 50.1968 8.51853 51.3757 8.1633 52.4987C6.62846 52.0727 3.1389 50.9492 3.1389 48.9774ZM9.53472 38.2221C11.2877 37.2383 14.0075 39.6342 15.1712 40.7126C14.3541 41.5633 13.5467 42.5318 12.7753 43.5873C11.4526 43.7062 10.1863 43.8971 9.02227 44.1528C8.58555 42.4569 7.78367 39.2048 9.53472 38.2221ZM20.1056 44.8535C21.003 44.9633 21.8628 45.1094 22.67 45.2881C22.4277 46.0412 22.1256 46.8288 21.7698 47.6362C21.2541 46.6875 20.7005 45.7577 20.1056 44.8535ZM16.0134 41.5451C16.5676 42.1272 17.1226 42.7772 17.6686 43.4823C16.5611 43.4315 15.4518 43.4313 14.3444 43.4816C14.8908 42.7829 15.4506 42.1339 16.0134 41.5451ZM10.2405 47.6354C9.89058 46.8308 9.59123 46.0397 9.34677 45.2758C10.1492 45.1017 11.005 44.9594 11.8966 44.8514C11.2999 45.7536 10.7473 46.683 10.2405 47.6354ZM11.9222 53.1866C11.0012 53.0869 10.1324 52.9518 9.33021 52.7825C9.57854 52.0052 9.88448 51.197 10.2418 50.3751C10.7556 51.3375 11.3167 52.2758 11.9222 53.1866ZM16.0467 56.492C15.4773 55.8963 14.9092 55.2373 14.3545 54.5285C15.4682 54.5709 16.5842 54.571 17.6978 54.5228C17.1501 55.2445 16.5971 55.9044 16.0467 56.492ZM21.7813 50.3333C22.1572 51.1641 22.4741 51.9678 22.7258 52.7321C21.9103 52.9126 21.0299 53.0579 20.1022 53.1658C20.7016 52.2444 21.264 51.3002 21.7813 50.3333ZM18.5756 53.307C16.872 53.425 15.1578 53.4237 13.4536 53.3166C12.4852 51.9452 11.6232 50.5028 10.8791 49.0054C11.6196 47.5112 12.4754 46.0716 13.4391 44.7023C15.1445 44.5773 16.8604 44.577 18.5658 44.7031C19.5213 46.0723 20.3758 47.5081 21.1335 48.9888C20.3848 50.4824 19.5245 51.9248 18.5756 53.307ZM22.4034 38.1874C24.1568 39.168 23.3763 42.6506 22.9933 44.1649C21.8265 43.9038 20.5593 43.7096 19.2328 43.5888C18.4599 42.5219 17.6592 41.5517 16.8554 40.712C18.0339 39.6104 20.667 37.2165 22.4034 38.1874Z" fill="#53C1DE"/>
<path d="M50.0992 37.1551C49.4338 36.7808 48.5662 36.7825 47.9002 37.1551C44.5646 38.9959 41.2289 40.8373 37.8926 42.6772C37.2435 43.0188 36.8056 43.7159 36.8126 44.4395V55.562C36.8079 56.2997 37.2683 57.0036 37.9343 57.3404C38.8925 57.8503 39.8236 58.4118 40.7992 58.8877C41.9261 59.4415 43.336 59.5639 44.4767 58.9864C45.4027 58.5078 45.814 57.4433 45.8128 56.465C45.8203 52.7943 45.814 49.1235 45.8157 45.4528C45.8377 45.2896 45.7152 45.1153 45.5372 45.1192C45.111 45.1124 44.6841 45.1153 44.2578 45.1181C44.0968 45.1029 43.9396 45.2367 43.9517 45.3986C43.946 49.0456 43.9529 52.6938 43.9483 56.3414C43.9576 56.846 43.6167 57.3309 43.1304 57.5013C42.0074 57.895 38.8019 55.8136 38.8019 55.8136C38.6842 55.7592 38.6095 55.6316 38.621 55.5048C38.621 51.8353 38.6216 48.1656 38.621 44.4966C38.6049 44.3487 38.696 44.2154 38.8319 44.155C42.1566 42.3251 45.4795 40.4905 48.8042 38.6594C48.9197 38.5823 49.0806 38.5826 49.1958 38.66C52.5205 40.4905 55.844 42.3234 59.1692 44.1535C59.3056 44.2138 59.3928 44.3492 59.379 44.4966C59.3784 48.1656 59.3801 51.8353 59.3778 55.5043C59.3877 55.6342 59.3206 55.76 59.1993 55.817C55.9057 57.6371 52.5746 59.3984 49.3108 61.2714C49.1684 61.353 49.007 61.4456 48.8475 61.3556C47.9892 60.8808 47.1413 60.3876 46.2858 59.9083C46.1928 59.8502 46.0744 59.8253 45.9774 59.8903C45.5939 60.0924 45.2331 60.2561 44.7927 60.4304C44.1741 60.6753 44.2729 60.7754 44.8308 61.1005C45.8312 61.6666 46.8333 62.2305 47.8337 62.7973C48.4923 63.2083 49.3772 63.2375 50.057 62.8577C53.3932 61.0192 56.7284 59.1785 60.0652 57.34C60.7293 57.0013 61.1921 56.3002 61.1874 55.5619V44.4395C61.1939 43.7306 60.7727 43.0459 60.1431 42.6993C56.7959 40.8495 53.447 39.0037 50.0992 37.1551Z" fill="#8CC84B"/>
<path d="M55.133 45.5059C53.8236 44.8054 52.2659 44.7681 50.8108 44.8597C49.7595 44.9635 48.6539 45.2536 47.8881 46.0072C47.1026 46.7647 46.9316 47.9879 47.3047 48.9768C47.5721 49.6756 48.2451 50.13 48.9411 50.3704C49.8376 50.6869 50.7793 50.7847 51.7212 50.8826C52.5803 50.9719 53.4397 51.0612 54.2654 51.3165C54.6028 51.4282 54.9956 51.5992 55.0989 51.9663C55.1943 52.4009 55.0897 52.9061 54.7368 53.2081C53.6159 54.0952 50.498 53.9593 49.3905 53.2611C48.9428 52.9636 48.7499 52.437 48.6714 51.9352C48.6627 51.7788 48.5368 51.6353 48.367 51.6472C47.9418 51.6422 47.5167 51.6433 47.0915 51.6467C46.9432 51.6342 46.789 51.7398 46.7808 51.8912C46.6934 54.1897 48.8044 55.1917 50.7849 55.4122C51.9164 55.5201 53.0727 55.5139 54.1869 55.2711C55.0244 55.0804 55.8643 54.7292 56.4408 54.0841C57.1518 53.3001 57.2916 52.1328 56.9728 51.1562C56.729 50.4275 56.0324 49.96 55.3202 49.7196C54.3518 49.3875 53.2041 49.209 52.327 49.1255C51.0521 49.0041 49.5371 49.0537 49.1762 48.2159C49.0323 47.7772 49.1548 47.2326 49.5579 46.9627C50.6245 46.2393 52.7953 46.3354 53.8998 46.8758C54.407 47.1298 54.7009 47.6514 54.8222 48.178C54.8447 48.3327 54.9488 48.4942 55.1279 48.4874C55.5501 48.4958 55.9724 48.4897 56.3945 48.4902C56.5395 48.5003 56.6984 48.4185 56.7267 48.27C56.7088 47.1694 56.1467 46.0427 55.133 45.5059Z" fill="#8CC84B"/>
</g>
<defs>
<linearGradient id="paint0_linear_89_17" x1="5.44675" y1="17.2702" x2="20.0596" y2="28.2972" gradientUnits="userSpaceOnUse">
<stop offset="0.231" stop-color="#999875"/>
<stop offset="0.563" stop-color="#9B9977"/>
<stop offset="0.683" stop-color="#A09F7E"/>
<stop offset="0.768" stop-color="#A9A889"/>
<stop offset="0.837" stop-color="#B7B69A"/>
<stop offset="0.896" stop-color="#C9C7B0"/>
<stop offset="0.948" stop-color="#DEDDCB"/>
<stop offset="0.994" stop-color="#F8F6EB"/>
<stop offset="1" stop-color="#FBF9EF"/>
</linearGradient>
<linearGradient id="paint1_linear_89_17" x1="12.9889" y1="1.93979" x2="14.865" y2="27.9907" gradientUnits="userSpaceOnUse">
<stop stop-color="#48A547"/>
<stop offset="1" stop-color="#3F9143"/>
</linearGradient>
<linearGradient id="paint2_linear_89_17" x1="-0.219275" y1="16.7377" x2="17.2357" y2="3.73855" gradientUnits="userSpaceOnUse">
<stop stop-color="#41A247"/>
<stop offset="0.352" stop-color="#4BA74B"/>
<stop offset="0.956" stop-color="#67B554"/>
<stop offset="1" stop-color="#69B655"/>
</linearGradient>
<clipPath id="clip0_89_17">
<rect width="64" height="64" fill="white"/>
</clipPath>
</defs>
</svg>
