<svg width="64" height="64" viewBox="0 0 64 64" fill="none" xmlns="http://www.w3.org/2000/svg">
<g clip-path="url(#clip0_98_248)">
<path d="M40.4075 29.8773L26.3791 34.0625L14.1746 38.9838L10.7602 39.8073C9.89065 40.563 8.97888 41.3284 7.99274 42.1034C6.9112 42.9559 5.90388 43.731 5.12971 44.2928C4.27089 44.9128 2.99846 46.0753 2.3517 46.8114C1.38673 47.9158 0.623312 49.088 0.294581 49.9891C-0.288655 51.6167 -0.00222217 53.2635 1.12171 54.7846C2.56377 56.722 5.43736 58.6983 8.78794 60.0449C10.4952 60.7328 13.3687 61.6143 15.5317 62.1083C19.1262 62.9415 26.0822 63.8425 29.9099 63.9782C30.6839 64.0073 31.7231 64.0073 31.7654 63.9782C31.8503 63.9296 32.4441 62.8932 33.1335 61.6048C35.4875 57.2161 37.184 53.0988 38.1064 49.5823C38.6578 47.4511 39.0924 44.6125 39.3786 41.251C39.453 40.3113 39.4847 37.1628 39.4211 36.097C39.3256 34.3533 39.1559 32.939 38.891 31.5536C38.8486 31.3501 38.8378 31.166 38.8592 31.1564C38.9015 31.1273 39.0287 31.0886 40.7571 30.6332L40.4073 29.8776V29.8774H40.4075V29.8773ZM37.2053 31.5922C37.3325 31.5922 37.6717 34.5662 37.7565 36.4458C37.7778 36.8429 37.767 37.1045 37.7459 37.1045C37.6612 37.1045 35.9539 36.1842 34.7347 35.4868C33.6743 34.8764 31.6597 33.6557 31.3417 33.4232C31.2354 33.3554 31.246 33.3458 32.1156 33.0744C33.5893 32.619 37.0887 31.5922 37.2053 31.5922ZM30.0585 33.7429C30.154 33.7429 30.3977 33.8687 30.981 34.1981C33.1652 35.4478 36.1343 36.9592 37.4067 37.463C37.7989 37.618 37.8412 37.5598 36.9401 38.1218C35.0103 39.323 32.6031 40.5048 29.6554 41.6965C29.1359 41.9096 28.7012 42.0742 28.6906 42.0742C28.6695 42.0742 28.7329 41.8322 28.8177 41.5415C29.5281 39.1291 29.9312 36.6878 29.9525 34.7309C29.963 33.7621 29.963 33.7621 30.0585 33.7332C30.0372 33.7429 30.0478 33.7429 30.0585 33.7429ZM28.5847 34.2563C28.6481 34.3143 28.6058 36.4844 28.5209 37.0753C28.3301 38.4898 28.0332 39.8073 27.5456 41.2896C27.4289 41.6478 27.3227 41.9483 27.3017 41.9676C27.2591 42.016 25.8064 40.7179 25.3293 40.2142C24.5022 39.3422 23.8555 38.4703 23.3783 37.6179C23.1345 37.1819 22.7528 36.3295 22.7845 36.3003C22.9542 36.1938 28.5422 34.2176 28.5847 34.2563ZM21.6499 36.746C21.6605 36.746 21.671 36.746 21.6818 36.7556C21.7029 36.775 21.7773 36.9301 21.8409 37.1044C22.1801 37.9472 22.9434 39.1872 23.601 39.9817C24.322 40.8536 25.2658 41.7835 26.0503 42.3939C26.3049 42.5876 26.538 42.7716 26.5698 42.8007C26.6335 42.8589 26.6547 42.8491 24.9263 43.4499C22.9224 44.1473 20.738 44.8448 18.2355 45.5811C17.6377 45.7571 17.0405 45.9348 16.4438 46.1139C16.3482 46.143 16.3801 46.0945 16.6558 45.6974C17.8963 43.9245 19.7837 40.4467 20.8441 37.986C21.0244 37.5597 21.2046 37.1335 21.2365 37.0366C21.2789 36.9009 21.3318 36.8525 21.4696 36.7847C21.5438 36.7654 21.6182 36.746 21.6499 36.746ZM19.5294 37.55C19.5611 37.5695 19.0204 38.606 18.4902 39.5554C17.4616 41.3863 16.3376 43.1884 14.832 45.3777C14.5775 45.7555 14.3337 46.1044 14.3018 46.1431C14.2489 46.2109 14.2276 46.1915 14.058 45.8912C13.6974 45.2421 13.4004 44.4089 13.2414 43.6436C13.0823 42.8879 13.1142 41.5704 13.2945 40.7567C13.4322 40.1561 13.4218 40.1658 13.7398 40.0204C15.097 39.3908 19.487 37.5113 19.5294 37.55ZM37.8202 38.2283V38.6351C37.8202 40.7955 37.5658 43.7599 37.1945 45.9203C37.1309 46.2981 37.0777 46.608 37.0673 46.6178C37.0673 46.6178 36.7598 46.5404 36.3993 46.4434C34.8089 45.988 33.0805 45.3196 31.5217 44.535C30.493 44.0215 28.9981 43.1786 29.0406 43.1398C29.051 43.1302 29.4964 42.9171 30.0159 42.6652C32.0944 41.6771 34.0877 40.6114 35.8161 39.5555C36.4629 39.1582 37.4383 38.519 37.6506 38.3445L37.8202 38.2283ZM11.5236 41.0956C11.566 41.0956 11.5554 41.1732 11.4918 41.5219C11.4494 41.7739 11.3964 42.2389 11.3753 42.5584C11.2903 43.9729 11.545 45.0192 12.3084 46.4529C12.5205 46.8502 12.6902 47.1796 12.6795 47.1892C12.6052 47.2474 5.58586 49.1269 3.38019 49.679C2.72283 49.8436 2.15035 49.989 2.10771 49.9985C2.03363 50.018 2.02297 50.0084 2.05475 49.8435C2.2986 48.4196 3.48625 46.5595 5.14032 44.99C6.24313 43.9438 7.12326 43.3335 8.62893 42.5487C9.71047 41.9869 11.3752 41.1442 11.5024 41.1053C11.5025 41.0956 11.5131 41.0956 11.5236 41.0956ZM28.0651 43.7985C28.0756 43.7889 28.3301 43.9149 28.6375 44.0795C30.9067 45.2808 34.0665 46.395 36.7596 46.9665L37.0037 47.015L36.6643 47.1892C35.2541 47.9061 30.6204 49.6692 25.8808 51.2872C25.1914 51.5195 24.5129 51.7522 24.3855 51.8005C24.2582 51.8489 24.1416 51.8781 24.1416 51.8684C24.1416 51.8586 24.3326 51.5195 24.5763 51.1031C25.9017 48.8361 27.2378 46.0752 27.9164 44.157C28.0015 43.9729 28.0543 43.8083 28.0651 43.7985ZM26.3791 44.3024C26.3899 44.3122 26.3049 44.5155 26.1988 44.748C25.2764 46.7921 24.0674 49.0204 22.5194 51.5197C22.1272 52.1592 21.7984 52.6727 21.7876 52.6727C21.7772 52.6727 21.459 52.4982 21.0773 52.2851C18.8293 51.0256 16.8359 49.4756 15.5318 47.974L15.3408 47.7609L16.3057 47.5187C19.7625 46.6566 22.6995 45.7266 25.6156 44.5834C26.0292 44.4284 26.3686 44.3024 26.3791 44.3024ZM36.8553 47.6446C36.8659 47.8674 36.3251 49.8631 35.8797 51.3065C35.5086 52.5174 35.1904 53.4669 34.6073 55.1427C34.3529 55.8792 34.1303 56.4893 34.1196 56.4893C34.109 56.4893 34.0454 56.4797 33.9818 56.4604C30.8326 55.9371 28.0121 55.2106 25.3612 54.2419C24.6189 53.9706 23.5586 53.5346 23.495 53.4862C23.4738 53.4666 24.1101 53.1956 24.9159 52.8758C29.7405 50.948 34.7452 48.7585 36.4629 47.819C36.6643 47.7027 36.8234 47.6446 36.8553 47.6446ZM12.6689 48.4003C12.6901 48.4196 11.3435 50.1925 9.45596 52.6047C8.7986 53.4476 8.03518 54.4357 7.74894 54.8038C7.4626 55.1719 7.02791 55.7532 6.78402 56.102L6.33847 56.7317L5.86129 56.3636C5.29928 55.9372 4.32389 55.0266 3.88915 54.5229C2.97719 53.4864 2.36231 52.3917 2.11842 51.3939C2.00175 50.9288 2.00175 50.6962 2.10766 50.6673C2.26667 50.6286 5.09782 50.0182 7.74884 49.4562C9.22273 49.1463 10.9298 48.7782 11.5448 48.6426C12.1598 48.5067 12.6583 48.4003 12.6689 48.4003ZM14.0261 48.875L14.3653 49.2237C15.8923 50.7835 17.451 51.9365 19.3384 52.9438C19.6778 53.1183 19.9322 53.2732 19.9109 53.283C19.8369 53.3314 13.358 55.4334 10.3573 56.3829C8.67142 56.9254 7.28227 57.3613 7.27181 57.3613C7.26125 57.3613 7.16575 57.3033 7.05955 57.2354L6.8688 57.1094L7.17627 56.7026C8.17292 55.3851 9.42433 53.9417 12.1494 50.9385L14.0261 48.875ZM22.4877 54.4066C22.4982 54.397 22.9647 54.5519 23.5373 54.7458C24.9159 55.2204 26.0078 55.5207 27.4713 55.8598C29.2739 56.2764 31.8823 56.6833 33.4199 56.7995C33.6531 56.8188 33.7804 56.8383 33.7379 56.8674C33.6636 56.9062 32.105 57.3808 30.9598 57.7102C29.1359 58.2333 23.5692 59.7348 19.031 60.9265C18.1933 61.1493 17.4722 61.3334 17.4298 61.343C17.3239 61.3625 16.9738 61.2751 16.9738 61.2364C16.9738 61.2171 17.2283 60.9169 17.5359 60.5874C19.0626 58.9211 20.5791 57.0611 21.8409 55.2979C22.1907 54.8134 22.4877 54.4163 22.4877 54.4066ZM20.6214 54.4551C20.6319 54.4648 19.8792 55.5691 18.5645 57.4679C18.0024 58.272 17.3767 59.1826 17.154 59.5023C16.942 59.8123 16.6239 60.2968 16.4437 60.5679L16.1361 61.0621L15.9771 61.0233C15.5953 60.9264 12.9127 60.0641 12.2022 59.8026C11.3221 59.4829 10.4102 59.0955 9.73154 58.7661C8.88339 58.3495 7.82312 57.7294 7.90785 57.7101C7.92903 57.7005 9.38174 57.3419 11.1312 56.9061C15.7756 55.7531 18.3521 55.0847 20.0382 54.6004C20.3458 54.5132 20.6108 54.4453 20.6214 54.4551ZM33.8227 57.2838H33.8332C33.8757 57.3808 32.158 61.7402 31.5322 63.1158C31.3945 63.4258 31.3417 63.5034 31.2673 63.4935C31.087 63.484 28.5953 63.1643 27.0788 62.9608C24.4387 62.5927 20.0064 61.8854 18.8931 61.653L18.6387 61.6046L20.2184 61.275C23.6116 60.5775 25.2445 60.1997 26.8985 59.7347C28.9875 59.1535 31.0553 58.4269 33.144 57.5357C33.4727 57.4 33.7484 57.2935 33.8227 57.2838Z" fill="url(#paint0_linear_98_248)"/>
<path d="M25.9444 0.00049619C25.7112 -0.0284076 21.9468 1.2116 19.5187 2.11244C16.2422 3.33323 13.6975 4.49582 12.1281 5.50311C11.545 5.8811 10.8132 6.54946 10.6968 6.81098C10.6544 6.90787 10.6331 7.02411 10.6331 7.14035L12.054 8.37071L15.4364 9.35884L23.4845 10.6764L32.6881 12.1199L32.7836 11.3933C32.7519 11.3933 32.7306 11.3837 32.699 11.3837L31.4899 11.2092L31.2462 10.8121C29.995 8.79698 28.6165 6.29754 27.8107 4.61188C27.1852 3.30401 26.5913 1.79289 26.2626 0.707812C26.0823 0.049056 26.0612 0.0103243 25.9447 0.000674786V0.0004512H25.9444V0.00049619ZM25.7746 0.49472H25.7855C25.7959 0.50428 25.8383 0.775716 25.8808 1.09522C26.0609 2.45169 26.3899 3.75933 26.9094 5.17378C27.3016 6.23947 27.3016 6.18139 26.8457 6.05537C25.7642 5.7842 20.9185 5.01885 17.4087 4.57323C16.8467 4.50537 16.3695 4.43761 16.3695 4.42796C16.3271 4.38922 18.9037 3.15878 20.0383 2.67452C21.491 2.06406 25.4778 0.543101 25.7746 0.49472ZM15.5529 4.83475L15.9666 4.96055C18.2144 5.65818 23.8659 6.64635 26.9835 6.87884C27.3333 6.90792 27.6303 6.93705 27.6408 6.93705C27.6513 6.94669 27.3546 7.09202 26.9728 7.25664C25.4673 7.94448 23.813 8.78733 22.6678 9.43644C22.3286 9.6301 22.021 9.78521 21.9787 9.78521C21.9363 9.78521 21.7137 9.74643 21.4804 9.71735L21.0563 9.65914L19.996 8.70969C18.1298 7.0532 16.6665 5.77446 16.1045 5.28998L15.5529 4.83475ZM15.1289 5.135L16.624 6.8401C17.4404 7.77981 18.2675 8.70009 18.4479 8.90344C18.628 9.10702 18.7765 9.27177 18.766 9.28142C18.7235 9.31046 16.603 8.93257 15.4788 8.70018C14.3231 8.45791 13.8459 8.34167 13.1355 8.13832L12.5523 7.96387V7.82815C12.5629 7.17904 13.4643 6.21034 14.9911 5.2223L15.1289 5.135ZM27.8318 7.46008C27.8743 7.46008 27.9271 7.54724 28.0544 7.8088C28.4149 8.53533 29.5391 10.4923 29.8145 10.8701C29.8996 10.9962 30.0478 11.0058 28.5529 10.783C24.9584 10.25 23.8025 10.0759 23.8025 10.0565C23.8025 10.0468 23.9085 9.97896 24.0464 9.9111C25.1598 9.34933 26.2837 8.63236 27.2805 7.86701C27.5244 7.68291 27.7471 7.50855 27.7894 7.47943C27.7999 7.46008 27.8212 7.45043 27.8318 7.46008Z" fill="url(#paint1_linear_98_248)"/>
<path d="M10.7706 6.67542C10.7706 6.67542 10.5375 7.01462 10.7601 7.5184C10.8981 7.8283 11.301 8.20606 11.7568 8.59365C11.7568 8.59365 16.4753 12.7981 17.048 13.3988C19.6563 16.15 20.7909 18.8626 20.897 22.6021C20.9606 25.0046 20.4621 27.1165 19.2216 29.5675C17.0161 33.9658 12.3611 38.8193 5.18262 44.2057L6.23252 43.886C6.91111 43.4209 7.83363 42.927 9.99667 41.8419C14.9908 39.3423 20.6107 37.0464 27.503 34.6826C37.4275 31.2724 53.7464 27.281 63.0348 25.983L63.9999 25.8473L63.8514 25.6342C63.0032 24.4329 62.4199 23.687 61.72 22.8926C59.6843 20.5869 57.2138 18.7173 54.1917 17.1672C50.0351 15.0457 44.659 13.3891 37.8518 12.1588C36.5688 11.9262 33.7483 11.4806 31.458 11.1609C26.6015 10.4732 23.4629 9.99846 20.0063 9.45594C18.7658 9.2621 16.91 8.97155 15.68 8.72941C15.0438 8.60335 13.8245 8.34183 12.8702 8.04153C12.1068 7.77014 11.0039 7.49888 10.7706 6.67542ZM13.5065 9.09744C13.517 9.08788 13.6866 9.14582 13.9094 9.21368C14.3123 9.33948 14.8318 9.48484 15.447 9.63995C15.9124 9.7569 16.3789 9.86992 16.8466 9.97898C17.4828 10.1242 18.0129 10.2599 18.0235 10.2599C18.0978 10.3277 19.1688 13.4566 19.5293 14.658C19.667 15.1134 19.7732 15.5008 19.7626 15.5008C19.7517 15.5106 19.6352 15.3458 19.4974 15.123C18.2568 13.1273 16.2952 11.1027 14.026 9.47506C13.7292 9.28149 13.5065 9.10709 13.5065 9.09744ZM18.7234 10.4149C18.7764 10.4149 19.0097 10.444 19.2958 10.5021C21.0985 10.8702 24.3326 11.4321 26.4002 11.7518C26.7501 11.8002 27.0259 11.8585 27.0259 11.8777C27.0259 11.8972 26.8985 11.9649 26.7394 12.0425C26.3896 12.2071 24.9793 12.9724 24.5128 13.2631C23.3358 13.9799 22.2755 14.7549 21.512 15.4524C21.2046 15.7334 20.9393 15.9659 20.9393 15.9659C20.9393 15.9659 20.8759 15.8013 20.8227 15.5977C20.4412 14.2511 19.6458 12.2554 18.9248 10.8508C18.8081 10.628 18.7126 10.4246 18.7126 10.4053C18.7126 10.4246 18.7126 10.4149 18.7234 10.4149ZM27.9059 12.0134C27.9695 12.0327 28.0755 12.3621 28.2876 13.0887C28.68 14.4935 28.8602 16.0628 28.7966 17.5257C28.7753 17.9326 28.7542 18.3103 28.7329 18.3589L28.7011 18.4556L28.1498 18.291C27.0152 17.9616 25.1703 17.4675 23.5904 17.0607C22.689 16.8378 21.9575 16.6344 21.9575 16.6151C21.9575 16.5568 23.2724 15.3556 23.8343 14.9003C24.905 14.038 27.8104 11.9843 27.9059 12.0134ZM28.6375 12.1102C28.6694 12.0813 33.0274 12.7689 35.0102 13.1177C36.4842 13.3793 38.626 13.7862 38.7532 13.8347C38.8168 13.854 38.5941 13.9702 37.8836 14.2608C35.0844 15.4138 33.006 16.4502 30.9386 17.7097C30.3978 18.0391 29.9418 18.3103 29.9312 18.3103C29.9206 18.3103 29.91 18.0295 29.91 17.6903C29.91 15.8498 29.5071 13.9897 28.7647 12.4203C28.6905 12.2653 28.6269 12.12 28.6375 12.1102ZM39.9089 14.1447C39.9408 14.1737 39.8029 14.9585 39.6756 15.4234C39.2939 16.8669 38.2655 19.008 37.0038 21.0229C36.7809 21.3814 36.5795 21.6721 36.5581 21.6817C36.5372 21.6914 36.2508 21.546 35.9221 21.3716C34.6921 20.7129 33.2925 20.0929 31.7655 19.5116C31.3415 19.3469 30.9703 19.2112 30.9597 19.192C30.8853 19.1338 34.2997 17.0703 36.1023 16.0822C37.5338 15.2878 39.8665 14.1059 39.9089 14.1447ZM40.7147 14.2609C40.8102 14.2609 42.7401 14.7453 43.7472 15.0166C46.2392 15.6948 49.102 16.6538 50.9682 17.4288L51.7422 17.7486L51.2016 17.8648C46.6422 18.8238 42.7401 19.9283 38.9758 21.3233C38.6683 21.4395 38.3925 21.5364 38.3716 21.5364C38.3502 21.5364 38.4563 21.3136 38.5941 21.0423C39.7287 18.8432 40.4604 16.5472 40.6405 14.5902C40.6513 14.4061 40.6829 14.2609 40.7147 14.2609ZM21.5015 18.291C21.5332 18.2619 23.0071 18.5817 23.8024 18.7849C25.0112 19.0951 27.5771 19.8797 27.5771 19.9379C27.5771 19.9475 27.2909 20.1704 26.9517 20.4417C25.5627 21.4976 24.2265 22.6116 22.6253 24.026C22.1481 24.4428 21.7453 24.7818 21.7242 24.7818C21.7029 24.7818 21.6925 24.7235 21.7029 24.6461C21.9467 23.0185 21.8939 20.926 21.5545 18.8044C21.5226 18.5331 21.4909 18.3007 21.5015 18.291ZM52.4741 18.3202C52.4951 18.3394 51.7953 19.3469 51.35 19.9184C50.714 20.7516 49.7806 21.8562 47.6705 24.278C46.5574 25.5567 45.306 27.0003 44.8926 27.4846C44.4683 27.969 44.1185 28.3758 44.1078 28.3758C44.0972 28.3758 43.9595 28.2015 43.811 27.9884C42.6234 26.3608 41.2024 24.9367 39.5165 23.658C39.1984 23.4157 38.8487 23.1541 38.732 23.0766C38.6153 22.9992 38.5198 22.9217 38.5198 22.912C38.5198 22.883 40.3222 22.1757 41.6903 21.672C44.0867 20.7807 47.3522 19.7151 49.8018 19.0272C51.0849 18.6591 52.4528 18.3007 52.4741 18.3202ZM53.2905 18.5138C53.3328 18.5042 53.5874 18.6204 53.8949 18.7849C56.4716 20.1315 58.995 21.8657 60.9886 23.6483C61.5505 24.1521 62.9396 25.4696 62.9183 25.4793C62.9183 25.4793 62.4305 25.518 61.858 25.5567C57.394 25.8668 51.6789 26.7289 46.1862 27.9398C45.8151 28.0172 45.4865 28.0851 45.4652 28.0851C45.4442 28.0851 45.8576 27.7073 46.3772 27.252C49.6006 24.4136 51.0746 22.6214 52.8134 19.4243C53.0572 18.9498 53.2693 18.5429 53.2905 18.5138C53.2799 18.5138 53.2799 18.5138 53.2905 18.5138ZM29.6766 20.7227C29.8252 20.7516 31.2036 21.3428 32.2427 21.8173C33.197 22.2531 34.6285 22.9508 34.7027 23.0088C34.7133 23.0185 34.2042 23.2607 33.5789 23.5417C31.5853 24.4523 29.8782 25.3144 28.0967 26.3026C27.5878 26.5836 27.1637 26.8162 27.1531 26.8162C27.1107 26.8162 27.1212 26.7773 27.4076 26.3026C28.3619 24.714 29.1253 22.8152 29.5601 20.9647C29.6024 20.8195 29.6449 20.7227 29.6766 20.7227ZM28.2981 20.9551C28.33 20.9842 27.9695 22.1757 27.7469 22.8248C27.312 24.0552 26.5804 25.5955 25.8701 26.758C25.7002 27.0291 25.4458 27.4264 25.308 27.6491L25.043 28.0366L24.4492 27.5137C23.76 26.9033 23.1979 26.5255 22.477 26.1863C22.1906 26.0508 21.968 25.9344 21.968 25.9152C21.968 25.8377 23.7812 24.3361 25.1702 23.2511C26.1669 22.4663 28.2664 20.9261 28.2981 20.9551ZM36.7281 24.123L37.2477 24.4329C38.435 25.1402 39.8346 26.0799 40.9058 26.9033C41.51 27.3585 42.6763 28.3177 42.9098 28.5502L43.0368 28.6763L42.1782 28.899C37.3217 30.1292 33.5681 31.224 29.1889 32.6966C28.7011 32.8612 28.2876 32.9968 28.2557 32.9968C28.1923 32.9968 28.1391 33.0452 29.2314 32.1249C32.0307 29.771 34.5118 27.1745 36.3568 24.646L36.7281 24.123ZM34.5119 24.6268C34.533 24.6461 33.0804 26.5157 32.2108 27.5717C31.1717 28.8312 29.3267 30.943 28.0543 32.3186C27.5242 32.8902 27.0684 33.3649 27.0471 33.3746C27.0152 33.3843 27.0046 33.239 27.0046 33.0162C27.0046 31.8439 26.676 30.5942 26.1033 29.5286C25.8594 29.083 25.817 28.9764 25.8702 28.928C26.0716 28.7633 29.1571 27.1551 31.1081 26.1961C32.4229 25.5567 34.4798 24.6074 34.5119 24.6268ZM21.109 27.6299C21.1409 27.6299 21.3848 27.7461 21.6605 27.8818C22.3391 28.2208 22.9435 28.5986 23.4843 29.0056C23.5054 29.0249 23.2298 29.2284 22.8693 29.4705C21.8619 30.1292 20.3351 31.1853 19.4445 31.8344C18.5112 32.5125 18.4796 32.5319 18.5855 32.3866C19.2854 31.4081 19.6352 30.8559 20.0065 30.1488C20.3351 29.5191 20.6637 28.7731 20.897 28.124C20.9818 27.8431 21.0879 27.6299 21.109 27.6299ZM24.6825 30.1874C24.7354 30.1778 24.7992 30.2649 25.0853 30.6525C25.6897 31.4758 26.1563 32.5803 26.2731 33.4716L26.2941 33.6654L24.8416 34.1789C22.2436 35.0991 19.8474 36.0098 18.2249 36.6879C17.7691 36.8817 16.9737 37.2304 16.4543 37.463C15.9347 37.7051 15.5105 37.8892 15.5105 37.8795C15.5105 37.8699 15.8392 37.647 16.2421 37.3757C19.4127 35.2736 22.1589 32.9678 24.2159 30.6622C24.4386 30.4199 24.6402 30.1971 24.6612 30.1875L24.6825 30.1874ZM23.039 30.5556C23.0815 30.5943 21.8727 31.844 21.0456 32.6093C18.9991 34.5179 16.9738 36.0098 14.4608 37.463C14.1427 37.647 13.8565 37.8117 13.8246 37.8311C13.7503 37.8699 13.8457 37.7729 14.9485 36.6782C15.6484 35.9904 16.1785 35.4091 16.7829 34.6923C17.1858 34.2177 17.2601 34.1499 17.8434 33.7719C19.4021 32.745 22.9966 30.5168 23.039 30.5556Z" fill="url(#paint2_radial_98_248)"/>
</g>
<defs>
<linearGradient id="paint0_linear_98_248" x1="10.5541" y1="57.6691" x2="15.3795" y2="54.5484" gradientUnits="userSpaceOnUse">
<stop stop-color="#909CA9"/>
<stop offset="1" stop-color="#EDEDEE"/>
</linearGradient>
<linearGradient id="paint1_linear_98_248" x1="10.6703" y1="6.04124" x2="14.7518" y2="6.04124" gradientUnits="userSpaceOnUse">
<stop stop-color="#939FAB"/>
<stop offset="1" stop-color="#DCDEE1"/>
</linearGradient>
<radialGradient id="paint2_radial_98_248" cx="0" cy="0" r="1" gradientUnits="userSpaceOnUse" gradientTransform="translate(31.2658 23.144) rotate(-172.186) scale(5.25269 9.63561)">
<stop stop-color="#EE352C"/>
<stop offset="1" stop-color="#A91D22"/>
</radialGradient>
<clipPath id="clip0_98_248">
<rect width="64" height="64" fill="white"/>
</clipPath>
</defs>
</svg>
