<svg width="64" height="64" viewBox="0 0 64 64" fill="none" xmlns="http://www.w3.org/2000/svg">
<g clip-path="url(#clip0_98_254)">
<path d="M19.5907 45.6461H17.858C17.7967 42.7215 17.628 39.972 17.3521 37.3956H17.3367L14.6987 45.6461H13.3795L10.7573 37.3956H10.7422C10.5477 39.8692 10.4251 42.6193 10.3742 45.6461H8.79492C8.89671 41.9654 9.1525 38.5149 9.56131 35.2939H11.7088L14.2082 42.9006H14.2236L16.7384 35.2939H18.7931C19.2431 39.0666 19.509 42.5176 19.5907 45.6461ZM27.1049 38.0083C26.3994 41.8365 25.4687 44.6182 24.3135 46.3545C23.4136 47.6911 22.4275 48.3601 21.3538 48.3601C21.0675 48.3601 20.7143 48.2737 20.2958 48.1022V47.1792C20.5003 47.2086 20.7404 47.2254 21.0163 47.2254C21.5178 47.2254 21.921 47.0874 22.2283 46.8109C22.5959 46.474 22.7798 46.0954 22.7798 45.6765C22.7798 45.3893 22.6365 44.802 22.3505 43.9127L20.4491 38.0079H22.1513L23.516 42.4241C23.8227 43.4269 23.9506 44.127 23.8994 44.5258C24.6457 42.5326 25.167 40.3593 25.464 38.0076H27.1049V38.0083Z" fill="#5D87A1"/>
<path d="M50.1685 45.6463H45.2467V35.2942H46.9024V44.372H50.1685V45.6463ZM43.9583 45.8964L42.0553 44.9572C42.224 44.8186 42.3854 44.6686 42.5307 44.4948C43.3396 43.5446 43.7431 42.1394 43.7431 40.2782C43.7431 36.8534 42.3991 35.1401 39.7102 35.1401C38.3917 35.1401 37.3632 35.5747 36.6276 36.4442C35.8194 37.3951 35.4159 38.7953 35.4159 40.6465C35.4159 42.4662 35.7735 43.8011 36.489 44.6478C37.1435 45.4149 38.1302 45.7989 39.4497 45.7989C39.9419 45.7989 40.3936 45.7387 40.8051 45.6171L43.2827 47.0595L43.9583 45.8964ZM37.7934 43.5748C37.3742 42.9005 37.1646 41.8177 37.1646 40.3247C37.1646 37.7182 37.9565 36.4134 39.5418 36.4134C40.3705 36.4134 40.9778 36.7255 41.3662 37.3482C41.7847 38.0236 41.9953 39.0966 41.9953 40.5688C41.9953 43.1968 41.2028 44.5109 39.6185 44.5109C38.7895 44.5112 38.1821 44.2002 37.7934 43.5748ZM34.6944 42.7769C34.6944 43.6548 34.3723 44.375 33.7288 44.9391C33.0846 45.501 32.2208 45.7825 31.1383 45.7825C30.1258 45.7825 29.1442 45.4591 28.194 44.8156L28.6389 43.9267C29.4566 44.3361 30.1968 44.5397 30.8614 44.5397C31.4852 44.5397 31.9727 44.4014 32.3262 44.1272C32.6795 43.852 32.8901 43.466 32.8901 42.9778C32.8901 42.3627 32.4612 41.8371 31.6744 41.3968C30.9488 40.9984 29.4977 40.1654 29.4977 40.1654C28.7113 39.5922 28.3175 38.9768 28.3175 37.963C28.3175 37.1239 28.6111 36.4466 29.1987 35.9313C29.787 35.414 30.546 35.1562 31.4765 35.1562C32.4374 35.1562 33.3109 35.4137 34.0977 35.9233L33.6986 36.8125C33.0257 36.5266 32.3614 36.3836 31.7062 36.3836C31.1755 36.3836 30.7657 36.5112 30.4807 36.7673C30.1935 37.0225 30.0164 37.3489 30.0164 37.7493C30.0164 38.3614 30.4543 38.8937 31.2625 39.3427C31.9978 39.7418 33.485 40.5892 33.485 40.5892C34.2916 41.1614 34.6944 41.7711 34.6944 42.7769Z" fill="#F8981D"/>
<path d="M52.2471 31.8267C51.246 31.8012 50.4709 31.902 49.8204 32.1772C49.6325 32.2522 49.3339 32.2522 49.3078 32.4896C49.4092 32.59 49.4209 32.7521 49.509 32.8907C49.659 33.1408 49.9205 33.4773 50.1592 33.6527C50.4213 33.8536 50.6845 34.0525 50.9604 34.2276C51.4469 34.5286 51.9983 34.7037 52.4724 35.0037C52.7486 35.1782 53.0232 35.4038 53.2997 35.5917C53.4357 35.6918 53.5227 35.8541 53.6992 35.9168V35.8786C53.6108 35.7661 53.5857 35.6034 53.499 35.4782L53.1233 35.1159C52.7604 34.6284 52.3094 34.2028 51.8229 33.8533C51.4224 33.5774 50.5466 33.2024 50.3842 32.7411L50.3587 32.7156C50.634 32.6898 50.9604 32.59 51.2219 32.5134C51.6474 32.4012 52.0355 32.4267 52.4721 32.3145C52.673 32.2643 52.8722 32.2013 53.0737 32.1394V32.0266C52.8474 31.8012 52.686 31.5019 52.448 31.289C51.8112 30.7389 51.1094 30.2008 50.3842 29.7505C49.9958 29.4997 49.4963 29.3383 49.0828 29.1251C48.9338 29.0497 48.6827 29.0126 48.5949 28.8873C48.3706 28.6121 48.2444 28.2499 48.0817 27.9241C47.7201 27.2367 47.3688 26.474 47.0568 25.7471C46.8311 25.2596 46.6939 24.7728 46.4186 24.3218C45.1296 22.1958 43.7298 20.9081 41.5782 19.6441C41.1159 19.381 40.5658 19.2688 39.9782 19.1309L39.0397 19.0813C38.8395 18.9936 38.6389 18.7555 38.4641 18.643C37.7503 18.1931 35.9125 17.2177 35.3875 18.5054C35.0494 19.3194 35.8877 20.1196 36.1757 20.5324C36.3883 20.819 36.6638 21.1451 36.8125 21.4705C36.9006 21.6832 36.9253 21.9088 37.0134 22.1335C37.2136 22.6839 37.4008 23.2963 37.6639 23.8099C37.8012 24.0717 37.9509 24.3469 38.1263 24.584C38.2268 24.7226 38.4015 24.7839 38.4397 25.0099C38.2653 25.259 38.2515 25.635 38.1514 25.9477C37.7014 27.3609 37.8772 29.1117 38.515 30.1503C38.7146 30.463 39.1907 31.1514 39.8275 30.8875C40.3913 30.6625 40.2664 29.9497 40.4285 29.3246C40.4657 29.1736 40.4412 29.0745 40.5162 28.9754V28.9998C40.6907 29.3497 40.8668 29.6869 41.0285 30.0378C41.4165 30.6501 42.0922 31.2883 42.655 31.7125C42.9547 31.9388 43.192 32.3259 43.5674 32.4642V32.4267H43.5426C43.4666 32.3145 43.3554 32.2643 43.2557 32.1772C43.03 31.9519 42.7802 31.6767 42.6051 31.4269C42.0808 30.7261 41.6167 29.9504 41.2049 29.1498C41.0034 28.7615 40.8296 28.3369 40.6672 27.9492C40.5915 27.7995 40.5915 27.5739 40.466 27.4985C40.2778 27.7734 40.0036 28.0115 39.8663 28.3483C39.6283 28.887 39.6035 29.5496 39.5151 30.2387L39.4659 30.2628C39.0675 30.1626 38.9289 29.7505 38.7775 29.4006C38.4029 28.512 38.3399 27.0857 38.665 26.0605C38.7521 25.7983 39.1287 24.9727 38.9784 24.7229C38.9031 24.4835 38.6526 24.3473 38.5154 24.1588C38.354 23.9217 38.1772 23.6217 38.0647 23.3586C37.7647 22.6585 37.6137 21.8827 37.2906 21.1829C37.1396 20.8568 36.8775 20.5193 36.6652 20.219C36.4268 19.8815 36.1646 19.6438 35.9761 19.2437C35.9139 19.1061 35.8265 18.8811 35.9266 18.7314C35.951 18.631 36.0019 18.5935 36.1017 18.5684C36.2637 18.4314 36.7268 18.6055 36.8892 18.6809C37.3529 18.8684 37.7406 19.0435 38.1276 19.306C38.3028 19.4315 38.4906 19.6692 38.7152 19.7319H38.9784C39.3778 19.8189 39.8282 19.756 40.2042 19.8691C40.8668 20.0821 41.4671 20.3945 42.0055 20.7316C43.6437 21.7705 44.9947 23.2467 45.9067 25.0099C46.0564 25.2971 46.12 25.5603 46.2566 25.86C46.5201 26.4733 46.8459 27.0988 47.1074 27.6991C47.3702 28.2867 47.6206 28.8867 47.996 29.3748C48.1831 29.6373 48.9351 29.7749 49.2723 29.9125C49.5217 30.0247 49.9101 30.1245 50.1351 30.2621C50.5606 30.5242 50.9845 30.8252 51.3846 31.1135C51.5838 31.2635 52.2099 31.5762 52.2471 31.8267ZM39.4887 20.9573C39.316 20.9555 39.1438 20.9766 38.9767 21.0202V21.0453H39.0008C39.1016 21.2452 39.2767 21.3838 39.4016 21.5583C39.5024 21.7588 39.5898 21.9577 39.6886 22.1579L39.7127 22.1331C39.8891 22.0083 39.9768 21.808 39.9768 21.5077C39.9008 21.4193 39.8891 21.3329 39.8258 21.2452C39.7522 21.12 39.5898 21.0577 39.4887 20.9573Z" fill="#5D87A1"/>
<path d="M53.4384 45.6446H53.6975V44.3763H53.3088L52.9917 45.2418L52.6472 44.3763H52.2729V45.6446H52.5176V44.6797H52.5313L52.8923 45.6446H53.0788L53.4384 44.6797V45.6446ZM51.3508 45.6446H51.625V44.5913H51.9839V44.376H50.9768V44.5913H51.3501L51.3508 45.6446Z" fill="#F8981D"/>
</g>
<defs>
<clipPath id="clip0_98_254">
<rect width="64" height="64" fill="white"/>
</clipPath>
</defs>
</svg>
