<svg width="65" height="65" viewBox="0 0 65 65" fill="none" xmlns="http://www.w3.org/2000/svg">
<path d="M63.853 38.4416C63.4683 37.3117 62.4607 36.5246 61.1575 36.3357C60.543 36.2467 59.8393 36.2846 59.0066 36.4512C57.5552 36.7416 56.4784 36.8522 55.6925 36.8737C58.6587 32.0159 61.0708 26.4762 62.4594 21.2616C64.7046 12.8299 63.5048 8.98872 62.1027 7.25114C58.3922 2.65245 52.9785 0.181806 46.4471 0.106072C42.9633 0.0648271 39.9045 0.732068 38.3091 1.21177C36.8235 0.957691 35.226 0.815706 33.5499 0.789407C30.4084 0.740834 27.6325 1.40506 25.2606 2.77029C23.9471 2.33974 21.8398 1.73257 19.406 1.34499C13.6816 0.43344 9.06817 1.14379 5.69366 3.45607C1.60737 6.25581 -0.287015 11.1201 0.063386 17.9139C0.174507 20.071 1.41862 26.6337 3.37731 32.8579C4.50303 36.4353 5.70343 39.4061 6.94517 41.6885C8.70607 44.925 10.5902 46.831 12.7055 47.5154C13.8913 47.8986 16.0454 48.1668 18.3112 46.3368C18.5983 46.6739 18.9813 47.0092 19.49 47.3205C20.1357 47.7155 20.9254 48.0383 21.7139 48.2296C24.556 48.9188 27.2182 48.7464 29.4894 47.7805C29.5033 48.1722 29.5141 48.5466 29.5233 48.8698C29.5384 49.3942 29.5532 49.9082 29.5731 50.389C29.7076 53.6399 29.9356 56.1676 30.6112 57.9361C30.6483 58.0336 30.6982 58.1817 30.751 58.3388C31.0879 59.3399 31.6516 61.0155 33.0854 62.328C34.5704 63.6873 36.3664 64.1044 38.0113 64.1042C38.8363 64.1042 39.6234 63.9993 40.3137 63.8558C42.7748 63.3443 45.5697 62.5648 47.5915 59.7726C49.503 57.1328 50.4322 53.1569 50.6004 46.8921C50.6222 46.715 50.6423 46.5459 50.6617 46.3847C50.6748 46.2759 50.6881 46.1646 50.7016 46.0537L51.152 46.0921L51.268 46.0997C53.7746 46.2105 56.8395 45.6948 58.7217 44.8468C60.2091 44.1773 64.9751 41.7368 63.853 38.4416Z" fill="black"/>
<path d="M59.5671 39.0826C52.1143 40.5737 51.6019 38.1262 51.6019 38.1262C59.4709 26.8008 62.7604 12.4249 59.9216 8.90648C52.1772 -0.691116 38.7713 3.84793 38.5476 3.96577L38.4756 3.97828C37.0032 3.6818 35.3553 3.50519 33.5033 3.47587C30.131 3.42226 27.573 4.33338 25.632 5.76113C25.632 5.76113 1.71713 -3.7948 2.82938 17.7795C3.06599 22.3693 9.6116 52.5078 17.4189 43.4045C20.2725 40.0758 23.0297 37.2613 23.0297 37.2613C24.3991 38.1436 26.0385 38.5937 27.7572 38.4321L27.8907 38.3221C27.8492 38.7354 27.8682 39.1397 27.9442 39.6182C25.9329 41.7979 26.5239 42.1806 22.5032 42.9833C18.4349 43.7966 20.8249 45.2444 22.3853 45.6228C24.277 46.0817 28.6536 46.7317 31.6107 42.7164L31.4928 43.1746C32.2808 43.7868 32.8342 47.1569 32.7415 50.2119C32.6487 53.267 32.5868 55.3644 33.2077 57.0027C33.8287 58.641 34.4475 62.3271 39.733 61.2286C44.1496 60.3106 46.4382 57.9316 46.7566 53.9634C46.9826 51.1422 47.4939 51.5593 47.5262 49.0371L47.9363 47.843C48.4092 44.0187 48.0114 42.785 50.7324 43.3588L51.3936 43.4152C53.3963 43.5035 56.0174 43.1027 57.5558 42.4092C60.8684 40.9181 62.833 38.4285 59.5668 39.0826H59.5671Z" fill="#336791"/>
<path d="M27.0319 19.8321C26.3604 19.7414 25.752 19.8253 25.4443 20.0512C25.2711 20.1784 25.2176 20.3257 25.2033 20.4272C25.1646 20.6957 25.3587 20.9926 25.4778 21.1458C25.815 21.5794 26.3078 21.8775 26.7955 21.9431C26.8662 21.9526 26.9364 21.9572 27.0064 21.9572C27.8198 21.9572 28.5591 21.343 28.6243 20.8896C28.7058 20.3218 27.8559 19.9433 27.0319 19.8321Z" fill="white"/>
<path d="M49.2812 19.8501C49.2172 19.405 48.4004 19.2781 47.6255 19.3826C46.8518 19.4872 46.1014 19.8259 46.1641 20.272C46.2144 20.6189 46.86 21.2111 47.6245 21.211C47.6889 21.211 47.7541 21.2068 47.8198 21.1979C48.33 21.1294 48.7044 20.8151 48.8822 20.6339C49.1532 20.3579 49.3098 20.0501 49.2812 19.8501Z" fill="white"/>
<path d="M62.0472 38.9132C61.7631 38.0797 60.8485 37.8114 59.3288 38.1159C54.8167 39.0191 53.2008 38.3934 52.6701 38.0144C56.1774 32.832 59.0625 26.5679 60.619 20.7231C61.3563 17.9545 61.7636 15.3834 61.7968 13.2879C61.8336 10.9874 61.4298 9.29721 60.5967 8.26466C57.2381 4.10199 52.3089 1.86919 46.342 1.80782C42.24 1.76313 38.7742 2.78145 38.1023 3.06772C36.6874 2.72641 35.1449 2.51688 33.4658 2.49015C30.3862 2.44187 27.7245 3.15696 25.5206 4.61446C24.5633 4.26898 22.0894 3.44524 19.064 2.97258C13.8334 2.1556 9.677 2.77455 6.71082 4.81278C3.17154 7.24491 1.53762 11.5924 1.85424 17.7342C1.96077 19.8008 3.17451 26.1574 5.09023 32.2452C7.61179 40.2577 10.3526 44.7937 13.2367 45.7267C13.5742 45.8359 13.9636 45.9124 14.3927 45.9124C15.4448 45.9124 16.7345 45.4524 18.0766 43.8875C20.3056 41.2864 22.3869 39.1068 23.154 38.3148C24.2878 38.9051 25.5331 39.2347 26.8071 39.2677C26.8093 39.3 26.8127 39.3324 26.8157 39.3646C26.5601 39.6586 26.3505 39.9163 26.1718 40.1363C25.2892 41.223 25.1055 41.4492 22.2643 42.0167C21.4563 42.1784 19.3096 42.6075 19.2783 44.0669C19.2441 45.6613 21.8154 46.331 22.1085 46.402C23.1294 46.6499 24.1129 46.7722 25.0509 46.7722C27.3323 46.772 29.3398 46.0449 30.9442 44.6378C30.8947 50.3222 31.1392 55.9236 31.8428 57.6303C32.419 59.0272 33.827 62.4418 38.2743 62.4415C38.9267 62.4415 39.6451 62.3679 40.4353 62.2036C45.0765 61.2384 47.092 59.2487 47.8718 54.8621C48.289 52.5178 49.005 46.9195 49.3417 43.9167C50.0524 44.1317 50.9674 44.2301 51.9566 44.23C54.0196 44.23 56.3999 43.8049 57.8928 43.1328C59.5697 42.3774 62.596 40.5236 62.0472 38.9132ZM50.9943 18.6215C50.9788 19.508 50.8531 20.3128 50.7197 21.1529C50.5763 22.0564 50.4278 22.9905 50.3905 24.1245C50.3536 25.2281 50.4957 26.3754 50.6332 27.4849C50.9108 29.7259 51.1958 32.0331 50.0927 34.3097C49.9213 34.0144 49.7558 33.6922 49.6041 33.3354C49.467 33.0131 49.1694 32.4953 48.7573 31.7786C47.1536 28.9892 43.3983 22.4571 45.3207 19.7916C45.8932 18.998 47.3464 18.1824 50.9943 18.6215ZM46.5727 3.60303C51.9189 3.71757 56.1479 5.6575 59.1422 9.36864C61.4387 12.2152 58.9099 25.1677 51.5891 36.3418C51.5168 36.2527 51.4432 36.1627 51.367 36.0705C51.3367 36.0335 51.3057 35.996 51.2744 35.9581C53.1661 32.9277 52.7962 29.9295 52.467 27.2712C52.3317 26.1803 52.204 25.1499 52.2364 24.1821C52.2701 23.1561 52.4099 22.2764 52.5451 21.4257C52.7114 20.3772 52.8805 19.2925 52.8338 18.0136C52.8686 17.8795 52.8827 17.721 52.8645 17.5329C52.7454 16.3065 51.302 12.6366 48.3598 9.31446C46.7506 7.49769 44.4036 5.46435 41.1992 4.09294C42.5775 3.81587 44.4624 3.55748 46.5727 3.60303ZM16.6564 42.7422C15.1779 44.4664 14.1568 44.136 13.8211 44.0275C11.6332 43.3196 9.09473 38.8346 6.85661 31.7223C4.91999 25.5682 3.78819 19.38 3.6987 17.6447C3.41586 12.1567 4.78739 8.33192 7.77536 6.27659C12.638 2.93177 20.6328 4.93378 23.8452 5.94923C23.799 5.99334 23.751 6.03473 23.7052 6.07957C18.4338 11.2435 18.5588 20.066 18.5717 20.6052C18.5713 20.8133 18.5892 21.1079 18.6139 21.5132C18.7046 22.997 18.8734 25.7588 18.4225 28.8865C18.0034 31.7928 18.927 34.6375 20.9562 36.6911C21.1663 36.9037 21.3856 37.1033 21.6121 37.2911C20.7088 38.2294 18.7458 40.3041 16.6564 42.7422ZM22.2897 35.4517C20.6541 33.7966 19.9114 31.4942 20.2516 29.1345C20.7277 25.8305 20.5519 22.953 20.4575 21.4071C20.4443 21.1908 20.4326 21.0013 20.4256 20.8517C21.1958 20.1895 24.7645 18.3346 27.3095 18.9003C28.4711 19.1584 29.1786 19.9253 29.4728 21.2449C30.9956 28.0758 29.6745 30.923 28.6129 33.2108C28.3941 33.6822 28.1874 34.1277 28.0108 34.5887L27.874 34.9449C27.5276 35.8459 27.2054 36.6834 27.0056 37.4788C25.2671 37.4736 23.5757 36.7534 22.2897 35.4517ZM22.5565 44.6641C22.0489 44.5411 21.5923 44.3274 21.3244 44.1502C21.5481 44.048 21.9464 43.9092 22.637 43.7713C25.9793 43.1037 26.4954 42.6328 27.6226 41.2446C27.8811 40.9264 28.174 40.5655 28.5797 40.1261L28.5801 40.1255C29.1845 39.4693 29.4608 39.5806 29.962 39.7822C30.3683 39.9453 30.7639 40.4391 30.9243 40.9826C31.0002 41.2392 31.0855 41.7266 30.8066 42.1055C28.4518 45.3033 25.0207 45.2622 22.5565 44.6641ZM40.0481 60.4521C35.9593 61.3019 34.5116 59.2783 33.5576 56.965C32.9419 55.4715 32.6393 48.7368 32.854 41.2997C32.8568 41.2007 32.8423 41.1052 32.8141 41.0153C32.7897 40.8419 32.7521 40.6664 32.6999 40.4898C32.3805 39.4077 31.6025 38.5025 30.6691 38.1272C30.2982 37.9782 29.6174 37.7047 28.7994 37.9076C28.974 37.2105 29.2765 36.4234 29.6044 35.5709L29.742 35.2122C29.897 34.808 30.0912 34.3892 30.2969 33.946C31.4078 31.5521 32.9293 28.2734 31.278 20.8662C30.6594 18.0919 28.5941 16.7372 25.463 17.0517C23.5858 17.2401 21.8686 17.9748 21.0121 18.396C20.8279 18.4865 20.6594 18.5739 20.5021 18.6591C20.7411 15.8637 21.6444 10.6397 25.0231 7.33458C27.1502 5.25368 29.9834 4.22601 33.4352 4.28134C40.2366 4.38941 44.598 7.7749 47.0594 10.5961C49.1803 13.0272 50.3289 15.476 50.7873 16.7967C47.3403 16.4568 44.996 17.1168 43.8074 18.7648C41.222 22.3494 45.2219 29.3072 47.1443 32.6511C47.4968 33.264 47.8011 33.7935 47.8968 34.0186C48.5228 35.4902 49.3332 36.4726 49.925 37.1898C50.1063 37.4095 50.2823 37.6227 50.4161 37.8088C49.3722 38.1008 47.4969 38.7752 47.6677 42.1468C47.53 43.8387 46.5497 51.7593 46.0519 54.5578C45.3947 58.2548 43.992 59.632 40.0481 60.4521ZM57.1151 41.508C56.0476 41.9887 54.2611 42.3493 52.5639 42.4266C50.6893 42.5118 49.7352 42.2229 49.5107 42.0453C49.4052 39.9443 50.2117 39.7247 51.0649 39.4923C51.199 39.4557 51.3298 39.4202 51.4561 39.3774C51.5346 39.4393 51.6205 39.5008 51.7146 39.561C53.2213 40.5256 55.9086 40.6296 59.7023 39.8701C59.7162 39.8673 59.7301 39.8647 59.7439 39.8619C59.2323 40.326 58.3567 40.9488 57.1151 41.508Z" fill="white"/>
</svg>
