<svg width="64" height="64" viewBox="0 0 64 64" fill="none" xmlns="http://www.w3.org/2000/svg">
<path d="M27.2101 31.0307C27.0547 30.9361 26.9192 30.8093 26.8115 30.6557C26.7618 30.5848 26.7198 30.5099 26.685 30.4324H9.02047V13.0213H32.9976V24.3901C33.5094 24.4364 33.9389 24.7726 34.1192 25.2329C34.2789 25.1454 34.4569 25.0913 34.6439 25.0748C34.7704 25.0638 34.8961 25.0717 35.018 25.0958V8.68378C35.018 7.75534 34.2628 7 33.3344 7H8.68371C7.75534 7 7 7.75534 7 8.68378V30.7693C7 31.6977 7.75534 32.453 8.68371 32.453H27.0567C26.9133 32.1626 26.8793 31.8349 26.9636 31.5195C27.0123 31.3381 27.0964 31.1727 27.2101 31.0307ZM31.1486 9.82739C31.1486 9.48405 31.4269 9.20565 31.7703 9.20565H32.392C32.7354 9.20565 33.0136 9.48398 33.0136 9.82739V10.532C33.0136 10.8754 32.7353 11.1537 32.392 11.1537H31.7703C31.4269 11.1537 31.1486 10.8754 31.1486 10.532V9.82739ZM28.2578 9.82739C28.2578 9.48405 28.5361 9.20565 28.8795 9.20565H29.5012C29.8446 9.20565 30.1229 9.48398 30.1229 9.82739V10.532C30.1229 10.8754 29.8445 11.1537 29.5012 11.1537H28.8795C28.5361 11.1537 28.2578 10.8754 28.2578 10.532V9.82739ZM25.3669 9.82739C25.3669 9.48405 25.6453 9.20565 25.9885 9.20565H26.6102C26.9536 9.20565 27.232 9.48398 27.232 9.82739V10.532C27.232 10.8754 26.9536 11.1537 26.6102 11.1537H25.9885C25.6453 11.1537 25.3669 10.8754 25.3669 10.532V9.82739Z" fill="#525FE1"/>
<path d="M36.9959 29.845L36.8091 28.7856C36.7839 28.6429 36.6479 28.5476 36.5051 28.5727L35.563 28.7388C35.4499 28.4734 35.3054 28.2248 35.134 27.9972L35.7494 27.2637C35.7941 27.2105 35.8159 27.1416 35.8099 27.0722C35.8037 27.0028 35.7703 26.9388 35.717 26.894L34.893 26.2025C34.8397 26.1578 34.7706 26.1361 34.7013 26.1421C34.632 26.1482 34.568 26.1816 34.5232 26.2349L33.9084 26.9678C33.656 26.8392 33.3861 26.7401 33.1032 26.6746V25.7179C33.1032 25.573 32.9857 25.4554 32.8408 25.4554H31.7649C31.6201 25.4554 31.5025 25.573 31.5025 25.7179V26.6746C31.2196 26.74 30.9499 26.8392 30.6973 26.9678L30.0824 26.2349C29.9892 26.1239 29.8238 26.1095 29.7127 26.2026L28.8886 26.894C28.8353 26.9388 28.8019 27.0028 28.7958 27.0722C28.7898 27.1416 28.8115 27.2106 28.8562 27.2639L29.4717 27.9973C29.3005 28.2248 29.1558 28.4735 29.0427 28.7388L28.1005 28.5727C27.9581 28.5477 27.8219 28.6429 27.7966 28.7856L27.6098 29.845C27.5977 29.9135 27.6134 29.984 27.6532 30.0411C27.6933 30.0981 27.7539 30.1369 27.8225 30.149L28.7654 30.3152C28.7807 30.6073 28.8316 30.8899 28.9135 31.159L28.0848 31.6373C28.0245 31.672 27.9805 31.7294 27.9624 31.7966C27.9444 31.8638 27.9539 31.9354 27.9887 31.9957L28.5265 32.9273C28.5612 32.9876 28.6186 33.0315 28.6858 33.0496C28.7081 33.0556 28.7309 33.0585 28.7537 33.0585C28.7994 33.0585 28.8446 33.0466 28.8849 33.0233L29.7142 32.5445C29.9093 32.7534 30.1294 32.9386 30.3701 33.0952L30.0426 33.9948C30.0189 34.0603 30.0219 34.1324 30.0514 34.1955C30.0808 34.2586 30.134 34.3074 30.1994 34.3311L31.2101 34.699C31.2391 34.7095 31.2696 34.715 31.2999 34.715C31.3378 34.715 31.3759 34.7067 31.4109 34.6903C31.474 34.661 31.5227 34.6077 31.5465 34.5422L31.8739 33.6426C32.0143 33.6596 32.1571 33.6684 32.3021 33.6684C32.447 33.6684 32.5899 33.6594 32.7303 33.6426L33.0578 34.5422C33.0815 34.6077 33.1304 34.661 33.1933 34.6903C33.2283 34.7067 33.2662 34.715 33.3043 34.715C33.3346 34.715 33.365 34.7097 33.3941 34.699L34.4049 34.3311C34.4702 34.3074 34.5235 34.2585 34.5528 34.1955C34.5822 34.1324 34.5854 34.0603 34.5616 33.9948L34.2341 33.0953C34.4745 32.9387 34.6947 32.7534 34.8899 32.5446L35.7193 33.0235C35.7595 33.0466 35.8048 33.0586 35.8505 33.0586C35.8732 33.0586 35.8962 33.0556 35.9184 33.0497C35.9856 33.0317 36.0429 32.9876 36.0776 32.9275L36.6155 31.9957C36.6502 31.9355 36.6597 31.8638 36.6417 31.7966C36.6237 31.7295 36.5797 31.6721 36.5194 31.6373L35.6909 31.1592C35.7727 30.89 35.8235 30.6074 35.8388 30.3153L36.7817 30.1491C36.8503 30.137 36.9111 30.0982 36.951 30.0411C36.9924 29.984 37.008 29.9135 36.9959 29.845ZM32.3029 31.5286C31.506 31.5286 30.8599 30.8824 30.8599 30.0854C30.8599 29.2884 31.5061 28.6423 32.3029 28.6423C33.0999 28.6423 33.7461 29.2884 33.7461 30.0854C33.7461 30.8824 33.0999 31.5286 32.3029 31.5286Z" fill="#525FE1"/>
<path d="M18.7658 22.6726C18.7658 22.3331 18.5668 22.0213 18.2589 21.8783L15.4402 20.5686L18.2589 19.2589C18.5668 19.1157 18.7658 18.8039 18.7658 18.4646V18.4418C18.7658 18.141 18.6144 17.8649 18.3611 17.7035C18.2209 17.614 18.0577 17.5667 17.8892 17.5667C17.7621 17.5667 17.6346 17.5946 17.5205 17.6476L13.0142 19.7432C12.7064 19.8863 12.5076 20.1981 12.5076 20.5374V20.6C12.5076 20.9388 12.7063 21.2504 13.0143 21.3943L17.521 23.4901C17.6376 23.544 17.7616 23.5714 17.8898 23.5714C18.0568 23.5714 18.2196 23.5239 18.3611 23.4339C18.6146 23.2719 18.7659 22.996 18.7659 22.6956L18.7658 22.6726Z" fill="#525FE1"/>
<path d="M23.2121 15.4314C23.0477 15.2063 22.7833 15.072 22.5047 15.072H22.4823C22.0998 15.072 21.7645 15.3167 21.648 15.6804L18.6789 24.8799C18.5944 25.1455 18.642 25.4381 18.8061 25.663C18.9705 25.8879 19.2349 26.0223 19.5135 26.0223H19.536C19.9183 26.0223 20.2534 25.7776 20.3698 25.4139L23.3385 16.2151C23.4238 15.9497 23.3765 15.6568 23.2121 15.4314Z" fill="#525FE1"/>
<path d="M29.0036 19.7431L24.4973 17.6476C24.3835 17.5947 24.2562 17.5668 24.1292 17.5668C23.9607 17.5668 23.7974 17.614 23.6573 17.7034C23.4036 17.865 23.2522 18.1411 23.2522 18.4418V18.4646C23.2522 18.8037 23.451 19.1155 23.7592 19.2593L26.5778 20.5688L23.7591 21.8783C23.4512 22.0214 23.2522 22.3332 23.2522 22.6727V22.6956C23.2522 22.996 23.4036 23.2719 23.6572 23.434C23.7982 23.5239 23.9611 23.5714 24.1283 23.5714C24.2564 23.5714 24.3803 23.544 24.4976 23.4899L29.0042 21.3941C29.3119 21.2506 29.5106 20.939 29.5106 20.6001V20.5375C29.5104 20.1981 29.3115 19.8864 29.0036 19.7431Z" fill="#525FE1"/>
<g clip-path="url(#clip0_89_17)">
<mask id="mask0_89_17" style="mask-type:luminance" maskUnits="userSpaceOnUse" x="26" y="26" width="38" height="38">
<path d="M64 26H26V64H64V26Z" fill="white"/>
</mask>
<g mask="url(#mask0_89_17)">
<mask id="mask1_89_17" style="mask-type:luminance" maskUnits="userSpaceOnUse" x="26" y="26" width="38" height="38">
<path d="M64 26H26V64H64V26Z" fill="white"/>
</mask>
<g mask="url(#mask1_89_17)">
<path d="M44.893 30.3047C37.3565 30.3047 37.827 33.573 37.827 33.573L37.8355 36.9588H45.0274V37.9756H34.9789C34.9789 37.9756 30.1562 37.4285 30.1562 45.0328C30.1562 52.6372 34.3655 52.3677 34.3655 52.3677H36.8777V48.8389C36.8777 48.8389 36.7423 44.6297 41.0198 44.6297H48.1528C48.1528 44.6297 52.1605 44.6944 52.1605 40.7563V34.2451C52.1605 34.2451 52.7689 30.3047 44.893 30.3047ZM40.9273 32.5816C41.0973 32.5814 41.2657 32.6147 41.4227 32.6797C41.5798 32.7447 41.7225 32.84 41.8427 32.9602C41.9628 33.0804 42.0581 33.2231 42.1231 33.3801C42.1881 33.5372 42.2214 33.7056 42.2212 33.8755C42.2214 34.0454 42.1881 34.2138 42.1231 34.3708C42.0581 34.5279 41.9628 34.6705 41.8426 34.7908C41.7224 34.9109 41.5797 35.0062 41.4227 35.0711C41.2656 35.1361 41.0972 35.1695 40.9273 35.1692C40.7574 35.1694 40.589 35.1361 40.432 35.0711C40.275 35.0062 40.1323 34.9108 40.0121 34.7907C39.892 34.6705 39.7967 34.5278 39.7317 34.3708C39.6668 34.2138 39.6334 34.0454 39.6336 33.8755C39.6333 33.7056 39.6667 33.5372 39.7317 33.3802C39.7966 33.2231 39.8919 33.0804 40.012 32.9602C40.1323 32.84 40.2749 32.7447 40.432 32.6797C40.589 32.6148 40.7574 32.5814 40.9273 32.5816Z" fill="url(#paint0_linear_89_17)"/>
<path d="M45.1068 59.8374C52.6433 59.8374 52.1727 56.5693 52.1727 56.5693L52.1642 53.1833H44.9724V52.1667H55.0209C55.0209 52.1667 59.8435 52.7137 59.8435 45.1092C59.8435 37.5048 55.6343 37.7745 55.6343 37.7745H53.1221V41.3033C53.1221 41.3033 53.2575 45.5125 48.98 45.5125H41.847C41.847 45.5125 37.8391 45.4477 37.8391 49.3857V55.8971C37.8391 55.8971 37.2307 59.8374 45.1068 59.8374ZM49.0725 57.5606C48.9025 57.5608 48.7342 57.5274 48.5771 57.4624C48.4201 57.3975 48.2774 57.3022 48.1572 57.1821C48.037 57.0619 47.9417 56.9192 47.8767 56.7621C47.8117 56.6051 47.7783 56.4368 47.7785 56.2668C47.7783 56.0969 47.8117 55.9285 47.8767 55.7715C47.9416 55.6144 48.0369 55.4716 48.1571 55.3515C48.2773 55.2313 48.42 55.136 48.5771 55.071C48.7341 55.0061 48.9025 54.9727 49.0725 54.9729C49.2424 54.9728 49.4108 55.0061 49.5678 55.071C49.7249 55.136 49.8676 55.2313 49.9877 55.3515C50.1079 55.4717 50.2032 55.6144 50.2682 55.7715C50.3332 55.9285 50.3665 56.0969 50.3664 56.2668C50.3665 56.4368 50.3332 56.6051 50.2682 56.7621C50.2032 56.9191 50.1079 57.0619 49.9877 57.182C49.8675 57.3022 49.7249 57.3975 49.5678 57.4624C49.4108 57.5274 49.2424 57.5607 49.0725 57.5606Z" fill="url(#paint1_linear_89_17)"/>
</g>
</g>
</g>
<defs>
<linearGradient id="paint0_linear_89_17" x1="33.0092" y1="32.9611" x2="47.7213" y2="47.5264" gradientUnits="userSpaceOnUse">
<stop stop-color="#387EB8"/>
<stop offset="1" stop-color="#366994"/>
</linearGradient>
<linearGradient id="paint1_linear_89_17" x1="42.0394" y1="42.314" x2="57.8385" y2="57.2493" gradientUnits="userSpaceOnUse">
<stop stop-color="#FFE052"/>
<stop offset="1" stop-color="#FFC331"/>
</linearGradient>
<clipPath id="clip0_89_17">
<rect width="38" height="38" fill="white" transform="translate(26 26)"/>
</clipPath>
</defs>
</svg>
