<svg width="64" height="64" viewBox="0 0 64 64" fill="none" xmlns="http://www.w3.org/2000/svg">
<path d="M54.3063 5.0007C54.447 4.99222 54.5806 5.0609 54.6506 5.17775C54.7205 5.29461 54.7147 5.43928 54.6356 5.55069L40.392 24.0145C40.2876 24.1269 40.1377 24.1913 39.9803 24.1913C39.8229 24.1913 39.673 24.1269 39.5686 24.0145L34.5463 18.6718C34.4237 18.5503 34.2498 18.4885 34.0737 18.5037C33.8977 18.519 33.7384 18.6097 33.6407 18.7504L30.5943 22.4431C30.498 22.6511 30.5296 22.8928 30.6767 23.0717L39.7333 32.0286C39.8377 32.141 39.9876 32.2054 40.145 32.2054C40.3024 32.2054 40.4523 32.141 40.5566 32.0286L58.3406 12.9362C58.4456 12.8285 58.6083 12.792 58.7526 12.8436C58.897 12.8953 58.9944 13.0249 58.9993 13.1719V59.6065C59.0061 59.7125 58.9649 59.8163 58.8862 59.8914C58.8074 59.9665 58.6987 60.0058 58.5876 59.9993H4.41239C4.30127 60.0058 4.19255 59.9665 4.11382 59.8914C4.03509 59.8163 3.99392 59.7125 4.00073 59.6065V5.39355C3.99392 5.2875 4.03509 5.18376 4.11382 5.10863C4.19255 5.0335 4.30127 4.9942 4.41239 5.0007H54.3063ZM40.3096 36.3499C37.8585 36.3088 35.4962 37.2253 33.7705 38.8869C32.0448 40.5486 31.1056 42.811 31.1707 45.1497C31.1707 50.571 35.2873 54.028 40.639 54.028C43.1163 54.0869 45.5456 53.3693 47.555 51.9852C47.7412 51.8238 47.7762 51.5569 47.6373 51.3567L46.1553 49.2353C45.9887 49.053 45.7052 49.0192 45.4966 49.1567C44.2085 49.9962 42.6925 50.4603 41.133 50.4924C38.2513 50.4924 36.44 48.7639 36.1107 46.7211C36.1166 46.6368 36.187 46.5696 36.2753 46.5639H48.7076C48.9727 46.5468 49.1837 46.3454 49.2016 46.0925V45.6211C49.2016 40.1212 45.579 36.3499 40.3096 36.3499ZM28.042 33.3643C25.5413 31.4136 22.3771 30.4071 19.15 30.5358C13.5514 30.5358 10.0934 33.6785 10.0934 37.4499C10.0934 46.0139 23.7607 43.264 23.7607 47.2711C23.7607 48.5282 22.4434 49.7853 19.644 49.7853C16.9854 49.8062 14.4203 48.8496 12.481 47.1139C12.3653 47.0106 12.2084 46.96 12.0507 46.9751C11.893 46.9901 11.7498 47.0694 11.6577 47.1925L9.51705 50.021C9.37815 50.2212 9.41312 50.4881 9.59938 50.6495C11.8224 52.6138 14.951 53.9495 19.3147 53.9495C25.7367 53.9495 28.8653 50.8067 29.03 46.7211C29.03 38.2356 15.3627 40.6712 15.3627 37.057C15.3627 35.7214 16.5977 34.7785 18.7384 34.7785C21.0981 34.7477 23.3963 35.4972 25.2427 36.8999C25.3512 36.9848 25.491 37.0243 25.6305 37.0095C25.77 36.9947 25.8973 36.9269 25.9837 36.8213L28.1243 34.0714C28.2133 33.9678 28.2547 33.8344 28.2392 33.7013C28.2237 33.5682 28.1526 33.4467 28.042 33.3643ZM40.392 39.807C42.6314 39.6874 44.5645 41.2886 44.7556 43.4212C44.7497 43.5055 44.6793 43.5726 44.591 43.5783H36.193C36.1046 43.5726 36.0343 43.5055 36.0283 43.4212C36.3036 41.3305 38.1842 39.7729 40.392 39.807Z" fill="#2CB134"/>
</svg>
