<svg width="64" height="64" viewBox="0 0 64 64" fill="none" xmlns="http://www.w3.org/2000/svg">
<path d="M43.1149 55.4923C42.7833 55.2738 42.4944 54.981 42.2647 54.6262C42.1586 54.4625 42.069 54.2894 41.9948 54.1106H4.31035V13.9044H55.4615V40.1577C56.5535 40.2644 57.4698 41.0408 57.8545 42.1038C58.1951 41.9017 58.5747 41.7769 58.9737 41.7388C59.2436 41.7133 59.5117 41.7315 59.7717 41.7871V3.88821C59.7717 1.74424 58.1606 0 56.1801 0H3.59191C1.61139 0 0 1.74424 0 3.88821V54.8885C0 57.0324 1.61139 58.7765 3.59191 58.7765H42.7876C42.4817 58.1061 42.4092 57.3492 42.5891 56.621C42.6929 56.2021 42.8725 55.8201 43.1149 55.4923ZM51.5171 6.52907C51.5171 5.73622 52.1109 5.09333 52.8433 5.09333H54.1696C54.9022 5.09333 55.4958 5.73606 55.4958 6.52907V8.15619C55.4958 8.94904 54.902 9.59177 54.1696 9.59177H52.8433C52.1107 9.59177 51.5171 8.94904 51.5171 8.15619V6.52907ZM45.35 6.52907C45.35 5.73622 45.9438 5.09333 46.6762 5.09333H48.0026C48.7352 5.09333 49.3289 5.73606 49.3289 6.52907V8.15619C49.3289 8.94904 48.7351 9.59177 48.0026 9.59177H46.6762C45.9438 9.59177 45.35 8.94904 45.35 8.15619V6.52907ZM39.1827 6.52907C39.1827 5.73622 39.7766 5.09333 40.509 5.09333H41.8352C42.5678 5.09333 43.1616 5.73606 43.1616 6.52907V8.15619C43.1616 8.94904 42.5678 9.59177 41.8352 9.59177H40.509C39.7766 9.59177 39.1827 8.94904 39.1827 8.15619V6.52907Z" fill="url(#paint0_linear_90_49)"/>
<path d="M63.9917 52.7542L63.5932 50.3077C63.5394 49.9782 63.2493 49.7581 62.9447 49.8162L60.9347 50.1996C60.6935 49.5867 60.3853 49.0126 60.0195 48.4872L61.3324 46.7933C61.4278 46.6705 61.4743 46.5113 61.4615 46.3511C61.4483 46.191 61.377 46.0431 61.2633 45.9397L59.5055 44.3428C59.3918 44.2395 59.2444 44.1894 59.0966 44.2034C58.9486 44.2174 58.812 44.2944 58.7166 44.4175L57.405 46.1101C56.8666 45.8132 56.2906 45.5842 55.6872 45.4331V43.2238C55.6872 42.8892 55.4365 42.6177 55.1275 42.6177H52.8322C52.5233 42.6177 52.2724 42.8892 52.2724 43.2238V45.4331C51.6687 45.584 51.0934 45.8132 50.5547 46.1101L49.2427 44.4177C49.044 44.1613 48.691 44.128 48.454 44.3429L46.696 45.9397C46.5823 46.0431 46.5112 46.191 46.4981 46.3511C46.4853 46.5113 46.5316 46.6707 46.627 46.7938L47.94 48.4874C47.5748 49.0126 47.266 49.5871 47.0248 50.1998L45.0148 49.8162C44.7109 49.7583 44.4203 49.9782 44.3664 50.3077L43.968 52.7542C43.9422 52.9124 43.9756 53.0751 44.0605 53.2069C44.146 53.3387 44.2754 53.4283 44.4217 53.4561L46.4331 53.8399C46.4659 54.5144 46.5744 55.1671 46.7491 55.7885L44.9812 56.893C44.8525 56.973 44.7588 57.1056 44.7202 57.2607C44.6818 57.4159 44.7021 57.5812 44.7762 57.7205L45.9236 59.8719C45.9976 60.0111 46.1201 60.1126 46.2634 60.1541C46.3111 60.168 46.3597 60.1748 46.4083 60.1748C46.5057 60.1748 46.6022 60.1474 46.6881 60.0936L48.4574 58.9878C48.8735 59.4703 49.3432 59.8979 49.8565 60.2596L49.1579 62.337C49.1073 62.4882 49.1138 62.6548 49.1766 62.8004C49.2394 62.9461 49.3529 63.0588 49.4924 63.1136L51.6486 63.963C51.7105 63.9874 51.7754 64 51.8402 64C51.921 64 52.0022 63.981 52.077 63.943C52.2116 63.8752 52.3154 63.7522 52.3662 63.601L53.0646 61.5236C53.3641 61.5628 53.6689 61.5831 53.9782 61.5831C54.2874 61.5831 54.5922 61.5625 54.8917 61.5236L55.5903 63.601C55.6409 63.7522 55.7452 63.8752 55.8794 63.943C55.9541 63.9808 56.035 64 56.1163 64C56.1809 64 56.2458 63.9877 56.3077 63.963L58.4642 63.1136C58.6034 63.0588 58.7171 62.9458 58.7797 62.8004C58.8425 62.6548 58.8492 62.4882 58.7985 62.337L58.0998 60.2599C58.6127 59.8983 59.0824 59.4703 59.4989 58.9881L61.2682 60.0939C61.354 60.1474 61.4506 60.1751 61.548 60.1751C61.5965 60.1751 61.6456 60.168 61.693 60.1545C61.8364 60.1129 61.9586 60.0111 62.0327 59.8722L63.1801 57.7205C63.2542 57.5816 63.2745 57.4159 63.2361 57.2607C63.1975 57.106 63.1038 56.9733 62.9751 56.893L61.2075 55.7888C61.3822 55.1672 61.4904 54.5146 61.5232 53.8402L63.5346 53.4563C63.6809 53.4284 63.8108 53.3388 63.8958 53.207C63.9841 53.0751 64.0175 52.9124 63.9917 52.7542ZM53.98 56.6419C52.2799 56.6419 50.9014 55.1497 50.9014 53.3093C50.9014 51.4689 52.28 49.9769 53.98 49.9769C55.6802 49.9769 57.0587 51.4689 57.0587 53.3093C57.0587 55.1497 55.6802 56.6419 53.98 56.6419Z" fill="url(#paint1_linear_90_49)"/>
<path d="M25.1004 36.1916C25.1004 35.4076 24.676 34.6875 24.019 34.3573L18.0058 31.333L24.0191 28.3084C24.676 27.9778 25.1004 27.2579 25.1004 26.4743V26.4217C25.1004 25.7271 24.7775 25.0895 24.2371 24.7168C23.938 24.5101 23.5898 24.4008 23.2303 24.4008C22.9593 24.4008 22.6872 24.4653 22.4439 24.5877L12.8304 29.4268C12.1737 29.7574 11.7495 30.4773 11.7495 31.2608V31.4054C11.7495 32.1879 12.1735 32.9073 12.8305 33.2396L22.4449 38.0792C22.6935 38.2038 22.9582 38.2669 23.2316 38.2669C23.588 38.2669 23.9351 38.1574 24.2371 37.9495C24.7778 37.5754 25.1006 36.9383 25.1006 36.2445L25.1004 36.1916Z" fill="url(#paint2_linear_90_49)"/>
<path d="M34.586 19.4699C34.2354 18.9503 33.6713 18.6401 33.0771 18.6401H33.0292C32.2132 18.6401 31.4978 19.2052 31.2493 20.045L24.9153 41.2887C24.735 41.9021 24.8365 42.5777 25.1867 43.0971C25.5374 43.6165 26.1014 43.9268 26.6957 43.9268H26.7437C27.5594 43.9268 28.2743 43.3616 28.5226 42.5219L34.8558 21.2798C35.0378 20.667 34.9369 19.9904 34.586 19.4699Z" fill="url(#paint3_linear_90_49)"/>
<path d="M46.9412 29.4267L37.3275 24.5876C37.0849 24.4655 36.8133 24.401 36.5423 24.401C36.183 24.401 35.8345 24.51 35.5357 24.7164C34.9943 25.0898 34.6714 25.7272 34.6714 26.4217V26.4744C34.6714 27.2573 35.0955 27.9774 35.753 28.3093L41.766 31.3333L35.7529 34.3574C35.0958 34.6876 34.6714 35.4077 34.6714 36.1917V36.2446C34.6714 36.9383 34.9943 37.5753 35.5354 37.9498C35.8362 38.1573 36.1837 38.267 36.5405 38.267C36.8136 38.267 37.078 38.2038 37.3283 38.0788L46.9424 33.2392C47.5988 32.9078 48.0226 32.1881 48.0226 31.4057V31.261C48.0222 30.4774 47.598 29.7575 46.9412 29.4267Z" fill="url(#paint4_linear_90_49)"/>
<defs>
<linearGradient id="paint0_linear_90_49" x1="29.8859" y1="0" x2="29.8859" y2="58.7765" gradientUnits="userSpaceOnUse">
<stop stop-color="#2115FF"/>
<stop offset="1" stop-color="#272C46"/>
</linearGradient>
<linearGradient id="paint1_linear_90_49" x1="53.9798" y1="42.6177" x2="53.9798" y2="64" gradientUnits="userSpaceOnUse">
<stop stop-color="#2115FF"/>
<stop offset="1" stop-color="#272C46"/>
</linearGradient>
<linearGradient id="paint2_linear_90_49" x1="18.4251" y1="24.4008" x2="18.4251" y2="38.2669" gradientUnits="userSpaceOnUse">
<stop stop-color="#2115FF"/>
<stop offset="1" stop-color="#272C46"/>
</linearGradient>
<linearGradient id="paint3_linear_90_49" x1="29.8862" y1="18.6401" x2="29.8862" y2="43.9268" gradientUnits="userSpaceOnUse">
<stop stop-color="#2115FF"/>
<stop offset="1" stop-color="#272C46"/>
</linearGradient>
<linearGradient id="paint4_linear_90_49" x1="41.347" y1="24.401" x2="41.347" y2="38.267" gradientUnits="userSpaceOnUse">
<stop stop-color="#2115FF"/>
<stop offset="1" stop-color="#272C46"/>
</linearGradient>
</defs>
</svg>
